<svg xmlns="http://www.w3.org/2000/svg" xmlns:xlink="http://www.w3.org/1999/xlink" xmlns:lucid="lucid" width="1451.11" height="988.86"><g transform="translate(-130.20308427829224 -84.70540122844903)" lucid:page-tab-id="0_0"><path d="M0 0h2000v1500H0z" fill="#fff"/><path d="M633.38 92.2a6 6 0 0 1 6-6h188a6 6 0 0 1 6 6v287a6 6 0 0 1-6 6h-188a6 6 0 0 1-6-6z" fill="#f5fbff"/><path d="M633.38 92.2a6 6 0 0 1 6-6h188a6 6 0 0 1 6 6v287a6 6 0 0 1-6 6h-188a6 6 0 0 1-6-6zM633.38 126.2h200" stroke="#4881b3" stroke-width="3" fill="none"/><use xlink:href="#a" transform="matrix(1,0,0,1,643.3799198025371,86.20540125979774) translate(43.17901234567901 24.444444444444443)"/><use xlink:href="#b" transform="matrix(1,0,0,1,638.3799198025371,128.70540125979772) translate(45.123456790123456 20.444444444444443)"/><use xlink:href="#c" transform="matrix(1,0,0,1,638.3799198025371,165.70540125979772) translate(55.58641975308642 20.444444444444443)"/><use xlink:href="#d" transform="matrix(1,0,0,1,638.3799198025371,202.70540125979772) translate(55.58641975308642 20.444444444444443)"/><use xlink:href="#e" transform="matrix(1,0,0,1,638.3799198025371,239.70540125979772) translate(67.31481481481481 20.444444444444443)"/><use xlink:href="#f" transform="matrix(1,0,0,1,638.3799198025371,276.7054012597977) translate(48.82716049382716 20.444444444444443)"/><use xlink:href="#g" transform="matrix(1,0,0,1,638.3799198025371,313.7054012597977) translate(37.65432098765431 20.444444444444443)"/><use xlink:href="#h" transform="matrix(1,0,0,1,638.3799198025371,350.7054012597977) translate(53.08641975308642 20.444444444444443)"/><path d="M131.7 583.36a6 6 0 0 1 6-6h188a6 6 0 0 1 6 6v398a6 6 0 0 1-6 6h-188a6 6 0 0 1-6-6z" fill="#f5fbff"/><path d="M131.7 583.36a6 6 0 0 1 6-6h188a6 6 0 0 1 6 6v398a6 6 0 0 1-6 6h-188a6 6 0 0 1-6-6zM131.7 617.36h200" stroke="#4881b3" stroke-width="3" fill="none"/><use xlink:href="#i" transform="matrix(1,0,0,1,141.7030843059615,577.3594664970516) translate(26.79012345679012 24.444444444444443)"/><use xlink:href="#j" transform="matrix(1,0,0,1,136.7030843059615,619.8594664970516) translate(35.18518518518518 20.444444444444443)"/><use xlink:href="#c" transform="matrix(1,0,0,1,136.7030843059615,656.8594664970516) translate(55.58641975308642 20.444444444444443)"/><use xlink:href="#k" transform="matrix(1,0,0,1,136.7030843059615,693.8594664970516) translate(8.734567901234584 20.444444444444443)"/><use xlink:href="#l" transform="matrix(1,0,0,1,136.7030843059615,730.8594664970516) translate(10.000000000000014 20.444444444444443)"/><use xlink:href="#m" transform="matrix(1,0,0,1,136.7030843059615,767.8594664970516) translate(63.580246913580254 20.444444444444443)"/><use xlink:href="#n" transform="matrix(1,0,0,1,136.7030843059615,804.8594664970516) translate(72.80864197530865 20.444444444444443)"/><use xlink:href="#o" transform="matrix(1,0,0,1,136.7030843059615,841.8594664970516) translate(67.22222222222223 20.444444444444443)"/><use xlink:href="#p" transform="matrix(1,0,0,1,136.7030843059615,878.8594664970516) translate(41.944444444444436 20.444444444444443)"/><use xlink:href="#q" transform="matrix(1,0,0,1,136.7030843059615,915.8594664970516) translate(43.2716049382716 20.444444444444443)"/><use xlink:href="#r" transform="matrix(1,0,0,1,136.7030843059615,952.8594664970516) translate(72.80864197530865 20.444444444444443)"/><path d="M1015.23 610.36a6 6 0 0 1 6-6h188a6 6 0 0 1 6 6v250a6 6 0 0 1-6 6h-188a6 6 0 0 1-6-6z" fill="#f5fbff"/><path d="M1015.23 610.36a6 6 0 0 1 6-6h188a6 6 0 0 1 6 6v250a6 6 0 0 1-6 6h-188a6 6 0 0 1-6-6zM1015.23 644.36h200" stroke="#4881b3" stroke-width="3" fill="none"/><use xlink:href="#s" transform="matrix(1,0,0,1,1025.2296666546101,604.3579393367579) translate(47.46913580246914 24.444444444444443)"/><use xlink:href="#t" transform="matrix(1,0,0,1,1020.2296666546101,646.8579393367579) translate(45.06172839506173 20.444444444444443)"/><use xlink:href="#u" transform="matrix(1,0,0,1,1020.2296666546101,683.8579393367579) translate(53.086419753086425 20.444444444444443)"/><use xlink:href="#v" transform="matrix(1,0,0,1,1020.2296666546101,720.8579393367579) translate(49.44444444444444 20.444444444444443)"/><use xlink:href="#w" transform="matrix(1,0,0,1,1020.2296666546101,757.8579393367579) translate(40.7716049382716 20.444444444444443)"/><use xlink:href="#x" transform="matrix(1,0,0,1,1020.2296666546101,794.8579393367579) translate(67.25308641975309 20.444444444444443)"/><use xlink:href="#y" transform="matrix(1,0,0,1,1020.2296666546101,831.8579393367579) translate(38.2716049382716 20.444444444444443)"/><path d="M621.5 610.34a6 6 0 0 1 6-6h188a6 6 0 0 1 6 6v176a6 6 0 0 1-6 6h-188a6 6 0 0 1-6-6z" fill="#f5fbff"/><path d="M621.5 610.34a6 6 0 0 1 6-6h188a6 6 0 0 1 6 6v176a6 6 0 0 1-6 6h-188a6 6 0 0 1-6-6zM621.5 644.34h200" stroke="#4881b3" stroke-width="3" fill="none"/><use xlink:href="#z" transform="matrix(1,0,0,1,631.4871194211254,604.3354400737824) translate(49.96913580246914 24.444444444444443)"/><use xlink:href="#A" transform="matrix(1,0,0,1,626.4871194211254,646.8354400737824) translate(48.76543209876544 20.444444444444443)"/><use xlink:href="#B" transform="matrix(1,0,0,1,626.4871194211254,683.8354400737824) translate(49.44444444444444 20.444444444444443)"/><use xlink:href="#v" transform="matrix(1,0,0,1,626.4871194211254,720.8354400737824) translate(49.44444444444444 20.444444444444443)"/><use xlink:href="#w" transform="matrix(1,0,0,1,626.4871194211254,757.8354400737824) translate(40.7716049382716 20.444444444444443)"/><path d="M131.7 92.2a6 6 0 0 1 6-6h188a6 6 0 0 1 6 6v213a6 6 0 0 1-6 6h-188a6 6 0 0 1-6-6z" fill="#f5fbff"/><path d="M131.7 92.2a6 6 0 0 1 6-6h188a6 6 0 0 1 6 6v213a6 6 0 0 1-6 6h-188a6 6 0 0 1-6-6zM131.7 126.2h200" stroke="#4881b3" stroke-width="3" fill="none"/><use xlink:href="#C" transform="matrix(1,0,0,1,141.7030843059615,86.20540125979774) translate(25.493827160493836 24.444444444444443)"/><use xlink:href="#D" transform="matrix(1,0,0,1,136.7030843059615,128.70540125979772) translate(31.5432098765432 20.444444444444443)"/><use xlink:href="#c" transform="matrix(1,0,0,1,136.7030843059615,165.70540125979772) translate(55.58641975308642 20.444444444444443)"/><use xlink:href="#n" transform="matrix(1,0,0,1,136.7030843059615,202.70540125979772) translate(72.80864197530865 20.444444444444443)"/><use xlink:href="#r" transform="matrix(1,0,0,1,136.7030843059615,239.70540125979772) translate(72.80864197530865 20.444444444444443)"/><use xlink:href="#q" transform="matrix(1,0,0,1,136.7030843059615,276.7054012597977) translate(43.2716049382716 20.444444444444443)"/><path d="M1223.64 206.95a6 6 0 0 1 6-6h188a6 6 0 0 1 6 6v213a6 6 0 0 1-6 6h-188a6 6 0 0 1-6-6z" fill="#f5fbff"/><path d="M1223.64 206.95a6 6 0 0 1 6-6h188a6 6 0 0 1 6 6v213a6 6 0 0 1-6 6h-188a6 6 0 0 1-6-6zM1223.64 240.95h200" stroke="#4881b3" stroke-width="3" fill="none"/><use xlink:href="#E" transform="matrix(1,0,0,1,1233.6382002435964,200.94659266138916) translate(12.129629629629633 24.444444444444443)"/><use xlink:href="#F" transform="matrix(1,0,0,1,1228.6382002435964,243.44659266138916) translate(22.870370370370367 20.444444444444443)"/><use xlink:href="#G" transform="matrix(1,0,0,1,1228.6382002435964,280.44659266138916) translate(60.52469135802469 20.444444444444443)"/><use xlink:href="#H" transform="matrix(1,0,0,1,1228.6382002435964,317.44659266138916) translate(21.080246913580254 20.444444444444443)"/><use xlink:href="#h" transform="matrix(1,0,0,1,1228.6382002435964,354.44659266138916) translate(53.08641975308642 20.444444444444443)"/><use xlink:href="#I" transform="matrix(1,0,0,1,1228.6382002435964,391.44659266138916) translate(29.043209876543216 20.444444444444443)"/><path d="M482.8 591.4l-.1 1.06-.25 1.06-.42 1.02-.57.94-.72.83-.83.73-.93.57-1 .42-1.08.26-1.07.08H370.7v-2h105.05l.82-.07.77-.2.72-.3.67-.4.6-.5.5-.6.4-.67.3-.73.2-.76.06-.82V476.87h2zm110.08-260.7H487.83l-.82.07-.75.18-.73.3-.67.4-.6.52-.5.6-.4.67-.3.72-.2.76-.06.82V450.2h-2V335.67l.07-1.06.26-1.06.42-1 .58-.95.7-.85.85-.7.93-.58 1.03-.43 1.07-.25 1.05-.1h105.13z" stroke="#224c72" stroke-width=".05" fill="#224c72"/><path d="M631.43 339.7l-20-10 20-10" fill="#fff" fill-opacity="0"/><path d="M631.88 320.6l-18.2 9.1 18.2 9.1-.9 1.8-21.78-10.9 21.8-10.9z" stroke="#224c72" stroke-width=".05" fill="#224c72"/><path fill="#fff"/><path d="M631.43 330.7h-20v-2h20z" stroke="#224c72" stroke-width=".05" fill="#224c72"/><path d="M611.43 329.7l-.5 3.17-1.43 2.74-2.16 2.18-2.75 1.42-3.17.5-3.16-.5-2.74-1.42-2.17-2.17-1.42-2.73-.5-3.17.5-3.15 1.42-2.75 2.17-2.17 2.74-1.42 3.16-.5 3.16.5 2.74 1.44 2.16 2.16 1.42 2.75.5 3.15" fill="#fff"/><path d="M604.9 319.25l3.04 1.57 2.38 2.38 1.56 3.03.54 3.32-1 .15 1 .17-.53 3.3-1.58 3.04-2.38 2.4-3.03 1.56-3.47.56-3.47-.56-3.03-1.57-2.38-2.4-1.57-3.02-.56-3.48.56-3.47 1.56-3.03 2.4-2.38 3-1.57 3.5-.56zm-6.3 1.93l-2.48 1.27-1.94 1.95-1.28 2.46-.45 2.84.45 2.85 1.28 2.46 1.94 1.96 2.47 1.27 2.83.46 2.85-.47 2.46-1.27 1.95-1.95 1.26-2.45.46-2.85-.46-2.84-1.27-2.46-1.96-1.95-2.46-1.27-2.85-.46z" stroke="#224c72" stroke-width=".05" fill="#224c72"/><path d="M332.15 587.36l20 10-20 10" fill="#fff" fill-opacity="0"/><path d="M354.4 597.36l-21.8 10.9-.9-1.8 18.2-9.1-18.2-9.1.9-1.8z" stroke="#224c72" stroke-width=".05" fill="#224c72"/><path fill="#fff"/><path d="M352.15 598.36h-20v-2h20z" stroke="#224c72" stroke-width=".05" fill="#224c72"/><path d="M372.15 597.36l-.5 3.16-1.43 2.75-2.16 2.16-2.75 1.42-3.15.5-3.16-.5-2.76-1.42-2.16-2.16-1.42-2.75-.5-3.16.5-3.16 1.42-2.75 2.16-2.16 2.75-1.43 3.15-.5 3.16.5 2.76 1.42 2.16 2.15 1.42 2.75.5 3.16" fill="#fff"/><path d="M365.63 586.9l3.02 1.57 2.4 2.4 1.55 3 .54 3.33-1 .16 1 .16-.54 3.32-1.56 3.02-2.4 2.4-3 1.55-3.5.57-3.47-.56-3.02-1.55-2.4-2.4-1.55-3-.56-3.5.56-3.47 1.56-3.02 2.4-2.4 3-1.55 3.5-.55zm-6.32 1.93l-2.46 1.28-1.94 1.95-1.28 2.47-.46 2.84.46 2.84 1.28 2.47 1.94 1.94 2.47 1.3 2.85.45 2.84-.46 2.46-1.3 1.94-1.93 1.28-2.47.46-2.84-.46-2.84-1.28-2.47-1.94-1.94-2.47-1.27-2.85-.46z" stroke="#224c72" stroke-width=".05" fill="#224c72"/><use xlink:href="#J" transform="matrix(1,0,0,1,437.40882738117324,450.19910077257236) translate(0.005000000000002558 17.77777777777778)"/><path d="M1116.23 563.86h-2v-93.12h2zm-5.9-235.07l1.06.25 1 .42.95.57.83.7.7.85.6.93.4 1 .27 1.08.08 1.07v108.4h-2V335.75l-.07-.83-.18-.76-.3-.72-.4-.67-.52-.6-.6-.5-.66-.42-.73-.3-.76-.18-.8-.06H854.87v-2h254.4z" stroke="#224c72" stroke-width=".05" fill="#224c72"/><path fill="#fff"/><path d="M845.88 339.7h-2v-20h2z" stroke="#224c72" stroke-width=".05" fill="#224c72"/><path fill="#fff"/><path d="M854.88 330.7h-20v-2h20z" stroke="#224c72" stroke-width=".05" fill="#224c72"/><path fill="#fff"/><path d="M855.88 339.7h-2v-20h2z" stroke="#224c72" stroke-width=".05" fill="#224c72"/><path d="M1105.23 602.4l10-20 10 20" fill="#fff" fill-opacity="0"/><path d="M1126.12 601.96l-1.78.9-9.1-18.2-9.12 18.2-1.78-.9 10.9-21.8z" stroke="#224c72" stroke-width=".05" fill="#224c72"/><path fill="#fff"/><path d="M1116.23 602.4h-2v-20h2z" stroke="#224c72" stroke-width=".05" fill="#224c72"/><path d="M1125.23 572.4l-.5 3.17-1.43 2.75-2.16 2.16-2.75 1.42-3.17.5-3.16-.5-2.75-1.42-2.16-2.16-1.42-2.75-.5-3.16.5-3.15 1.42-2.75 2.16-2.16 2.75-1.42 3.16-.5 3.16.5 2.74 1.42 2.16 2.16 1.42 2.75.5 3.16" fill="#fff"/><path d="M1118.7 561.96l3.03 1.56 2.4 2.4 1.55 3 .54 3.33-1 .16 1 .17-.54 3.32-1.56 3-2.4 2.4-3 1.56-3.5.56-3.47-.56-3.02-1.56-2.4-2.4-1.55-3-.56-3.5.56-3.47 1.56-3.02 2.4-2.38 3-1.56 3.5-.56zm-6.3 1.92l-2.48 1.28-1.94 1.94-1.28 2.47-.46 2.84.46 2.85 1.28 2.47 1.94 1.94 2.47 1.28 2.83.46 2.84-.46 2.47-1.28 1.94-1.94 1.28-2.47.46-2.84-.46-2.83-1.28-2.47-1.94-1.94-2.47-1.28-2.84-.46z" stroke="#224c72" stroke-width=".05" fill="#224c72"/><use xlink:href="#K" transform="matrix(1,0,0,1,1088.130901222511,444.06998770272855) translate(0.004999999999999005 17.77777777777778)"/><path d="M734.38 563.84h-2v-95.06h2zm0-121.73h-2v-16.4h2z" stroke="#224c72" stroke-width=".05" fill="#224c72"/><path fill="#fff"/><path d="M743.38 397.7h-20v-2h20z" stroke="#224c72" stroke-width=".05" fill="#224c72"/><path fill="#fff"/><path d="M734.38 406.7h-2v-20h2z" stroke="#224c72" stroke-width=".05" fill="#224c72"/><path d="M743.38 416.7l-.5 3.17-1.43 2.74-2.16 2.18-2.76 1.42-3.16.5-3.16-.5-2.75-1.42-2.16-2.17-1.4-2.73-.52-3.17.5-3.15 1.43-2.75 2.17-2.17 2.75-1.42 3.16-.5 3.16.5 2.75 1.44 2.15 2.16 1.42 2.75.5 3.15" fill="#fff"/><path d="M736.86 406.25l3.02 1.57 2.4 2.38 1.55 3.03.54 3.32-1 .15 1 .17-.54 3.3-1.56 3.04-2.4 2.4-3 1.56-3.5.56-3.47-.56-3.02-1.57-2.4-2.4-1.55-3.02-.56-3.48.56-3.47 1.56-3.03 2.38-2.38 3.02-1.57 3.48-.56zm-6.32 1.93l-2.47 1.27-1.94 1.95-1.28 2.46-.46 2.84.45 2.85 1.28 2.46 1.94 1.96 2.47 1.27 2.84.46 2.84-.47 2.47-1.27 1.93-1.95 1.28-2.45.47-2.85-.46-2.84-1.27-2.46-1.94-1.95-2.48-1.27-2.84-.46z" stroke="#224c72" stroke-width=".05" fill="#224c72"/><path d="M723.38 602.4l10-20 10 20" fill="#fff" fill-opacity="0"/><path d="M744.27 601.94l-1.78.9-9.12-18.22-9.1 18.22-1.8-.9 10.9-21.8z" stroke="#224c72" stroke-width=".05" fill="#224c72"/><path fill="#fff"/><path d="M734.38 602.4h-2v-20h2z" stroke="#224c72" stroke-width=".05" fill="#224c72"/><path d="M743.38 572.4l-.5 3.15-1.43 2.74-2.16 2.16-2.76 1.42-3.16.5-3.16-.5-2.75-1.42-2.16-2.17-1.4-2.75-.52-3.16.5-3.17 1.43-2.75 2.17-2.16 2.75-1.42 3.16-.5 3.16.5 2.75 1.42 2.15 2.16 1.42 2.75.5 3.16" fill="#fff"/><path d="M736.86 561.94l3.02 1.56 2.4 2.38 1.55 3.03.54 3.33-1 .16 1 .15-.54 3.32-1.56 3.02-2.4 2.38-3 1.56-3.5.56-3.47-.56-3.02-1.56-2.4-2.4-1.55-3-.56-3.5.56-3.47 1.56-3 2.38-2.4 3.02-1.56 3.48-.57zm-6.32 1.92l-2.47 1.27-1.94 1.95-1.28 2.46-.46 2.85.45 2.83 1.28 2.47 1.94 1.94 2.47 1.28 2.84.46 2.84-.46 2.47-1.28 1.93-1.94 1.28-2.47.47-2.84-.46-2.86-1.27-2.46-1.94-1.95-2.48-1.27-2.84-.46z" stroke="#224c72" stroke-width=".05" fill="#224c72"/><use xlink:href="#L" transform="matrix(1,0,0,1,694.4910309136482,442.1099448961075) translate(0.005000000000002558 17.77777777777778)"/><path d="M1001.4 256.7H854.9v-2h146.53zm181.74 0H1055.6v-2h127.54z" stroke="#224c72" stroke-width=".05" fill="#224c72"/><path d="M835.33 245.7l20 10-20 10" fill="#fff" fill-opacity="0"/><path d="M857.56 255.7l-21.8 10.9-.88-1.8 18.2-9.1-18.2-9.1.9-1.8z" stroke="#224c72" stroke-width=".05" fill="#224c72"/><path fill="#fff"/><path d="M855.33 256.7h-20v-2h20z" stroke="#224c72" stroke-width=".05" fill="#224c72"/><path fill="#fff"/><path d="M856.33 265.7h-2v-20h2z" stroke="#224c72" stroke-width=".05" fill="#224c72"/><path d="M1221.7 265.7l-20-10 20-10" fill="#fff" fill-opacity="0"/><path d="M1222.14 246.6l-18.2 9.1 18.2 9.1-.9 1.8-21.8-10.9 21.8-10.9z" stroke="#224c72" stroke-width=".05" fill="#224c72"/><path fill="#fff"/><path d="M1221.7 256.7h-20v-2h20z" stroke="#224c72" stroke-width=".05" fill="#224c72"/><path d="M1201.7 255.7l-.52 3.17-1.42 2.74-2.16 2.18-2.75 1.42-3.16.5-3.17-.5-2.75-1.42-2.16-2.17-1.42-2.73-.5-3.16.5-3.16 1.42-2.74 2.16-2.17 2.75-1.4 3.16-.52 3.15.52 2.75 1.4 2.16 2.18 1.42 2.74.5 3.17" fill="#fff"/><path d="M1195.17 245.25l3.02 1.57 2.38 2.38 1.56 3.03.54 3.32-1 .16 1 .17-.54 3.3-1.56 3.04-2.4 2.4-3 1.56-3.5.56-3.47-.56-3-1.57-2.4-2.4-1.56-3.02-.56-3.47.56-3.47 1.56-3.03 2.4-2.38 3-1.57 3.5-.56zm-6.32 1.93l-2.47 1.27-1.94 1.95-1.28 2.46-.46 2.84.46 2.85 1.28 2.46 1.94 1.96 2.47 1.27 2.84.46 2.83-.47 2.47-1.27 1.94-1.95 1.28-2.45.46-2.84-.46-2.84-1.28-2.46-1.94-1.95-2.47-1.27-2.84-.46z" stroke="#224c72" stroke-width=".05" fill="#224c72"/><use xlink:href="#K" transform="matrix(1,0,0,1,1001.4102845210183,242.37206790586802) translate(0.004999999999999005 17.77777777777778)"/><path d="M237.5 1067.53l.08.82.18.76.3.74.4.67.52.6.6.5.66.42.73.3.76.2.82.05h243.23v2h-243.3l-1.06-.08-1.07-.27-1.02-.42-.93-.57-.84-.7-.7-.84-.6-.95-.4-1.02-.27-1.07-.1-1.05v-58.74h2zm878.73.08l-.08 1.07-.26 1.06-.43 1.02-.58.94-.72.82-.83.7-.94.6-1 .4-1.08.27-1.05.07h-569.3v-2h569.22l.8-.06.77-.18.73-.3.67-.4.6-.52.5-.6.4-.66.3-.73.2-.75.06-.82v-115.2h2zm0-141.93h-2v-18.8h2z" stroke="#224c72" stroke-width=".05" fill="#224c72"/><path d="M246.5 989.3l-10 20-10-20" fill="#fff" fill-opacity="0"/><path d="M247.4 989.75l-10.9 21.8-10.88-21.8 1.8-.9 9.1 18.22 9.1-18.2z" stroke="#224c72" stroke-width=".05" fill="#224c72"/><path fill="#fff"/><path d="M237.5 1009.3h-2v-20h2z" stroke="#224c72" stroke-width=".05" fill="#224c72"/><path fill="#fff"/><path d="M246.5 1010.3h-20v-2h20z" stroke="#224c72" stroke-width=".05" fill="#224c72"/><path d="M1125.23 868.3l-10 20-10-20" fill="#fff" fill-opacity="0"/><path d="M1126.12 868.75l-10.9 21.8-10.88-21.8 1.78-.9 9.1 18.22 9.12-18.2z" stroke="#224c72" stroke-width=".05" fill="#224c72"/><path fill="#fff"/><path d="M1116.23 888.3h-2v-20h2z" stroke="#224c72" stroke-width=".05" fill="#224c72"/><path d="M1125.23 898.3l-.5 3.17-1.43 2.74-2.16 2.18-2.75 1.4-3.17.52-3.16-.5-2.75-1.42-2.16-2.17-1.42-2.73-.5-3.17.5-3.16 1.42-2.74 2.16-2.16 2.75-1.42 3.16-.52 3.16.52 2.74 1.4 2.16 2.18 1.42 2.74.5 3.16" fill="#fff"/><path d="M1118.7 887.85l3.03 1.57 2.4 2.38 1.55 3.03.54 3.32-1 .15 1 .16-.54 3.32-1.56 3.03-2.4 2.4-3 1.56-3.5.56-3.47-.56-3.02-1.57-2.4-2.4-1.55-3.02-.56-3.48.56-3.47 1.56-3.03 2.4-2.38 3-1.57 3.5-.56zm-6.3 1.93l-2.48 1.27-1.94 1.95-1.28 2.46-.46 2.84.46 2.85 1.28 2.46 1.94 1.96 2.47 1.27 2.83.46 2.84-.47 2.47-1.27 1.94-1.95 1.28-2.45.46-2.85-.46-2.84-1.28-2.46-1.94-1.95-2.47-1.27-2.84-.46z" stroke="#224c72" stroke-width=".05" fill="#224c72"/><use xlink:href="#M" transform="matrix(1,0,0,1,485.77937456034243,1060.2364412414477) translate(0.004999999999999005 17.77777777777778)"/><path d="M232.7 555.86h-2v-98.24h2zm0-124.9h-2V332.7h2z" stroke="#224c72" stroke-width=".05" fill="#224c72"/><path d="M221.7 575.4l10-20 10 20" fill="#fff" fill-opacity="0"/><path d="M242.6 574.97l-1.8.9-9.1-18.22-9.1 18.2-1.8-.88 10.9-21.8z" stroke="#224c72" stroke-width=".05" fill="#224c72"/><path fill="#fff"/><path d="M232.7 575.4h-2v-20h2z" stroke="#224c72" stroke-width=".05" fill="#224c72"/><path fill="#fff"/><path d="M241.7 556.4h-20v-2h20z" stroke="#224c72" stroke-width=".05" fill="#224c72"/><path d="M241.7 313.15l-10 20-10-20" fill="#fff" fill-opacity="0"/><path d="M242.6 313.6l-10.9 21.8-10.9-21.8 1.8-.9 9.1 18.22 9.1-18.2z" stroke="#224c72" stroke-width=".05" fill="#224c72"/><path fill="#fff"/><path d="M232.7 333.15h-2v-20h2z" stroke="#224c72" stroke-width=".05" fill="#224c72"/><path fill="#fff"/><path d="M241.7 334.15h-20v-2h20z" stroke="#224c72" stroke-width=".05" fill="#224c72"/><use xlink:href="#N" transform="matrix(1,0,0,1,175.005553441764,430.9491005450913) translate(0.005000000000002558 17.77777777777778)"/><path d="M1379.8 610.34a6 6 0 0 1 6-6h188a6 6 0 0 1 6 6v176a6 6 0 0 1-6 6h-188a6 6 0 0 1-6-6z" fill="#f5fbff"/><path d="M1379.8 610.34a6 6 0 0 1 6-6h188a6 6 0 0 1 6 6v176a6 6 0 0 1-6 6h-188a6 6 0 0 1-6-6zM1379.8 644.34h200" stroke="#4881b3" stroke-width="3" fill="none"/><use xlink:href="#O" transform="matrix(1,0,0,1,1389.8142937512764,604.3354400737824) translate(41.51234567901235 24.444444444444443)"/><use xlink:href="#v" transform="matrix(1,0,0,1,1384.8142937512764,646.8354400737824) translate(49.44444444444444 20.444444444444443)"/><use xlink:href="#P" transform="matrix(1,0,0,1,1384.8142937512764,683.8354400737824) translate(39.50617283950618 20.444444444444443)"/><use xlink:href="#Q" transform="matrix(1,0,0,1,1384.8142937512764,720.8354400737824) translate(0.6481481481481524 20.444444444444443)"/><use xlink:href="#R" transform="matrix(1,0,0,1,1384.8142937512764,757.8354400737824) translate(14.197530864197532 20.444444444444443)"/><path d="M1250.73 700.86h-14v-2h14zm107.6-.02h-14.02v-2h14z" stroke="#224c72" stroke-width=".05" fill="#224c72"/><path fill="#fff"/><path d="M1227.73 709.86h-2v-20h2z" stroke="#224c72" stroke-width=".05" fill="#224c72"/><path fill="#fff"/><path d="M1236.73 700.86h-20v-2h20z" stroke="#224c72" stroke-width=".05" fill="#224c72"/><path fill="#fff"/><path d="M1237.73 709.86h-2v-20h2z" stroke="#224c72" stroke-width=".05" fill="#224c72"/><path fill="#fff"/><path d="M1369.3 709.84h-2v-20h2z" stroke="#224c72" stroke-width=".05" fill="#224c72"/><path fill="#fff"/><path d="M1378.3 700.84h-20v-2h20z" stroke="#224c72" stroke-width=".05" fill="#224c72"/><path fill="#fff"/><path d="M1359.3 709.84h-2v-20h2z" stroke="#224c72" stroke-width=".05" fill="#224c72"/><use xlink:href="#S" transform="matrix(1,0,0,1,1250.7318500722895,686.5133563719371) translate(0.005000000000002558 17.77777777777778)"/><path d="M722.5 932.96l.05.82.2.76.28.73.42.67.5.6.6.5.67.4.72.3.76.2.83.06h299.76v2H727.44l-1.06-.08-1.08-.26-1-.42-.95-.57-.84-.72-.7-.83-.58-.94-.42-1.02-.26-1.06-.08-1.06v-119.2h2zm705.17.08l-.1 1.06-.24 1.06-.42 1.02-.57.94-.7.83-.85.72-.93.57-1.02.42-1.07.26-1.05.08h-299.83v-3.05l.05.07.16.98h299.55l.82-.07.76-.18.73-.3.67-.4.6-.52.5-.6.42-.66.3-.73.18-.76.07-.82V813.83h2z" stroke="#224c72" stroke-width=".05" fill="#224c72"/><path fill="#fff"/><path d="M731.5 804.84h-20v-2h20z" stroke="#224c72" stroke-width=".05" fill="#224c72"/><path fill="#fff"/><path d="M722.5 813.84h-2v-20h2z" stroke="#224c72" stroke-width=".05" fill="#224c72"/><path fill="#fff"/><path d="M731.5 814.84h-20v-2h20z" stroke="#224c72" stroke-width=".05" fill="#224c72"/><path fill="#fff"/><path d="M1436.67 804.84h-20v-2h20z" stroke="#224c72" stroke-width=".05" fill="#224c72"/><path fill="#fff"/><path d="M1427.67 813.84h-2v-20h2z" stroke="#224c72" stroke-width=".05" fill="#224c72"/><path fill="#fff"/><path d="M1436.67 814.84h-20v-2h20z" stroke="#224c72" stroke-width=".05" fill="#224c72"/><use xlink:href="#T" transform="matrix(1,0,0,1,1027.2867553492254,925.6666666666666) translate(0.005000000000002558 17.77777777777778)"/><path d="M429.8 747.86h-57.6v-2h57.6zm151.2 0h-57.62v-2H581z" stroke="#224c72" stroke-width=".05" fill="#224c72"/><path d="M333.65 736.86l20 10-20 10" fill="#fff" fill-opacity="0"/><path d="M355.9 746.86l-21.8 10.9-.9-1.8 18.2-9.1-18.2-9.1.9-1.8z" stroke="#224c72" stroke-width=".05" fill="#224c72"/><path fill="#fff"/><path d="M353.65 747.86h-20v-2h20z" stroke="#224c72" stroke-width=".05" fill="#224c72"/><path d="M373.65 746.86l-.5 3.16-1.43 2.75-2.16 2.16-2.75 1.42-3.15.5-3.16-.5-2.76-1.42-2.16-2.16-1.42-2.75-.5-3.16.5-3.16 1.42-2.75 2.16-2.16 2.75-1.43 3.15-.5 3.16.5 2.76 1.42 2.16 2.15 1.42 2.75.5 3.16" fill="#fff"/><path d="M367.13 736.4l3.02 1.57 2.4 2.4 1.55 3 .54 3.33-1 .16 1 .16-.54 3.32-1.56 3.02-2.4 2.4-3 1.55-3.5.57-3.47-.56-3.02-1.55-2.4-2.4-1.55-3-.56-3.5.56-3.47 1.56-3.02 2.4-2.4 3-1.55 3.5-.55zm-6.32 1.93l-2.46 1.28-1.94 1.95-1.28 2.47-.46 2.84.46 2.84 1.28 2.47 1.94 1.94 2.47 1.3 2.85.45 2.84-.46 2.46-1.3 1.94-1.93 1.28-2.47.46-2.84-.46-2.84-1.28-2.47-1.94-1.94-2.47-1.27-2.85-.46z" stroke="#224c72" stroke-width=".05" fill="#224c72"/><path d="M619.54 756.86l-20-10 20-10" fill="#fff" fill-opacity="0"/><path d="M620 737.75l-18.22 9.1 18.2 9.12-.9 1.78-21.78-10.9 21.8-10.88z" stroke="#224c72" stroke-width=".05" fill="#224c72"/><path fill="#fff"/><path d="M619.54 747.86h-20v-2h20z" stroke="#224c72" stroke-width=".05" fill="#224c72"/><path d="M599.54 746.86l-.5 3.16-1.43 2.75-2.15 2.16-2.75 1.42-3.16.5-3.16-.5-2.75-1.42-2.16-2.16-1.42-2.75-.5-3.16.5-3.16 1.42-2.75 2.16-2.16 2.75-1.43 3.16-.5 3.16.5 2.75 1.42 2.16 2.15 1.43 2.75.5 3.16" fill="#fff"/><path d="M593.02 736.4l3.02 1.57 2.4 2.4 1.55 3 .53 3.33-1 .16 1 .16-.54 3.32-1.57 3.02-2.4 2.4-3 1.55-3.5.57-3.47-.56-3.02-1.55-2.4-2.4-1.55-3-.57-3.5.56-3.47 1.55-3.02 2.4-2.4 3-1.55 3.5-.55zm-6.32 1.93l-2.47 1.28-1.94 1.95-1.3 2.47-.45 2.84.46 2.84 1.3 2.47 1.93 1.94 2.47 1.3 2.84.45 2.84-.46 2.47-1.3 1.94-1.93 1.27-2.47.46-2.84-.46-2.84-1.28-2.47-1.95-1.94-2.47-1.27-2.84-.46z" stroke="#224c72" stroke-width=".05" fill="#224c72"/><use xlink:href="#S" transform="matrix(1,0,0,1,429.8049877321891,733.5261334980266) translate(0.005000000000002558 17.77777777777778)"/><path d="M879.47 700.86H843v-2h36.47zm95.26 0h-17.48v-2h17.48z" stroke="#224c72" stroke-width=".05" fill="#224c72"/><path fill="#fff"/><path d="M834 709.86h-2v-20h2z" stroke="#224c72" stroke-width=".05" fill="#224c72"/><path fill="#fff"/><path d="M843 700.86h-20v-2h20z" stroke="#224c72" stroke-width=".05" fill="#224c72"/><path fill="#fff"/><path d="M844 709.86h-2v-20h2z" stroke="#224c72" stroke-width=".05" fill="#224c72"/><path fill="#fff"/><path d="M1004.73 709.86h-2v-20h2z" stroke="#224c72" stroke-width=".05" fill="#224c72"/><path fill="#fff"/><path d="M1013.73 700.86h-20v-2h20z" stroke="#224c72" stroke-width=".05" fill="#224c72"/><path d="M993.73 699.86l-.5 3.16-1.43 2.74-2.16 2.17-2.75 1.42-3.17.5-3.16-.5-2.75-1.42-2.16-2.17-1.42-2.74-.5-3.16.5-3.16 1.42-2.75 2.16-2.16 2.75-1.43 3.16-.5 3.16.5 2.74 1.42 2.16 2.15 1.42 2.75.5 3.16" fill="#fff"/><path d="M987.2 689.4l3.03 1.57 2.4 2.38 1.55 3.03.54 3.32-1 .16 1 .16-.54 3.32-1.56 3.02-2.4 2.38-3 1.57-3.5.57-3.47-.56-3.02-1.55-2.4-2.4-1.55-3-.56-3.5.56-3.47 1.56-3.02 2.4-2.4 3-1.55 3.5-.55zm-6.3 1.93l-2.48 1.27-1.94 1.95-1.28 2.46-.46 2.86.46 2.84 1.28 2.47 1.94 1.94 2.47 1.3 2.83.45 2.84-.46 2.47-1.3 1.94-1.93 1.28-2.47.46-2.84-.46-2.85-1.28-2.45-1.94-1.95-2.47-1.27-2.84-.46z" stroke="#224c72" stroke-width=".05" fill="#224c72"/><use xlink:href="#L" transform="matrix(1,0,0,1,879.4694974815071,686.5246060034249) translate(0.005000000000002558 17.77777777777778)"/><path d="M448.74 969.86H351.7v-2h97.04zM1525 962.9l-.08 1.06-.26 1.06-.42 1.02-.57.94-.72.83-.83.73-.94.57-1.02.42-1.06.26-1.06.08H1119.5l-1.1-3.34-2-1.46-1.1-.17-2.4.77-1.47 2-.35 2.2H543.26v-2h566.12l.16-1 2.12-2.9 3.5-1.14 2.05.33 2.9 2.13.86 2.56h397l.82-.07.76-.2.73-.3.67-.4.6-.5.5-.6.4-.67.3-.73.2-.76.06-.82v-130h2z" stroke="#224c72" stroke-width=".05" fill="#224c72"/><path d="M1534 794.28l-10 20-10-20" fill="#fff" fill-opacity="0"/><path d="M1534.9 794.73l-10.9 21.8-10.9-21.8 1.8-.9 9.1 18.22 9.1-18.2z" stroke="#224c72" stroke-width=".05" fill="#224c72"/><path fill="#fff"/><path d="M1525 814.28h-2v-20h2z" stroke="#224c72" stroke-width=".05" fill="#224c72"/><path d="M1534 824.28l-.5 3.16-1.43 2.75-2.16 2.15-2.74 1.42-3.16.5-3.16-.5-2.75-1.42-2.17-2.16-1.42-2.76-.5-3.16.5-3.16 1.43-2.74 2.16-2.17 2.74-1.4 3.16-.52 3.16.5 2.75 1.43 2.17 2.18 1.42 2.74.5 3.16" fill="#fff"/><path d="M1527.48 813.83l3.02 1.56 2.4 2.38 1.55 3.02.54 3.32-1 .16 1 .16-.55 3.32-1.56 3.03-2.4 2.37-3.02 1.57-3.48.56-3.48-.56-3.02-1.57-2.4-2.38-1.55-3.04-.56-3.48.55-3.48 1.56-3.02 2.4-2.38 3.02-1.57 3.48-.56zm-6.32 1.92l-2.47 1.28-1.95 1.94-1.28 2.47-.46 2.84.47 2.85 1.28 2.46 1.94 1.94 2.46 1.27 2.84.47 2.84-.46 2.47-1.26 1.95-1.95 1.28-2.47.46-2.85-.47-2.84-1.28-2.47-1.94-1.94-2.46-1.28-2.84-.45z" stroke="#224c72" stroke-width=".05" fill="#224c72"/><path d="M332.15 958.86l20 10-20 10" fill="#fff" fill-opacity="0"/><path d="M354.4 968.86l-21.8 10.9-.9-1.8 18.2-9.1-18.2-9.1.9-1.8z" stroke="#224c72" stroke-width=".05" fill="#224c72"/><path fill="#fff"/><path d="M352.15 969.86h-20v-2h20z" stroke="#224c72" stroke-width=".05" fill="#224c72"/><path fill="#fff"/><path d="M353.15 978.86h-2v-20h2z" stroke="#224c72" stroke-width=".05" fill="#224c72"/><use xlink:href="#U" transform="matrix(1,0,0,1,448.74197530864245,955.3927998303849) translate(0 17.95555555555555)"/><defs><path fill="#1d262b" d="M212-179c-10-28-35-45-73-45-59 0-87 40-87 99 0 60 29 101 89 101 43 0 62-24 78-52l27 14C228-24 195 4 139 4 59 4 22-46 18-125c-6-104 99-153 187-111 19 9 31 26 39 46" id="V"/><path fill="#1d262b" d="M30 0v-248h33v221h125V0H30" id="W"/><path fill="#1d262b" d="M33 0v-248h34V0H33" id="X"/><path fill="#1d262b" d="M30 0v-248h187v28H63v79h144v27H63v87h162V0H30" id="Y"/><path fill="#1d262b" d="M190 0L58-211 59 0H30v-248h39L202-35l-2-213h31V0h-41" id="Z"/><path fill="#1d262b" d="M127-220V0H93v-220H8v-28h204v28h-85" id="aa"/><g id="a"><use transform="matrix(0.06172839506172839,0,0,0.06172839506172839,0,0)" xlink:href="#V"/><use transform="matrix(0.06172839506172839,0,0,0.06172839506172839,15.987654320987653,0)" xlink:href="#W"/><use transform="matrix(0.06172839506172839,0,0,0.06172839506172839,28.333333333333332,0)" xlink:href="#X"/><use transform="matrix(0.06172839506172839,0,0,0.06172839506172839,34.50617283950617,0)" xlink:href="#Y"/><use transform="matrix(0.06172839506172839,0,0,0.06172839506172839,49.32098765432099,0)" xlink:href="#Z"/><use transform="matrix(0.06172839506172839,0,0,0.06172839506172839,65.30864197530865,0)" xlink:href="#aa"/><use transform="matrix(0.06172839506172839,0,0,0.06172839506172839,78.82716049382717,0)" xlink:href="#Y"/></g><path fill="#1d262b" d="M80-196l47-18 7 23-49 13 32 44-20 13-27-46-27 45-21-12 33-44-49-13 8-23 47 19-2-53h23" id="ab"/><path fill="#1d262b" d="M24 0v-261h32V0H24" id="ac"/><path fill="#1d262b" d="M24-231v-30h32v30H24zM24 0v-190h32V0H24" id="ad"/><path fill="#1d262b" d="M100-194c63 0 86 42 84 106H49c0 40 14 67 53 68 26 1 43-12 49-29l28 8c-11 28-37 45-77 45C44 4 14-33 15-96c1-61 26-98 85-98zm52 81c6-60-76-77-97-28-3 7-6 17-6 28h103" id="ae"/><path fill="#1d262b" d="M117-194c89-4 53 116 60 194h-32v-121c0-31-8-49-39-48C34-167 62-67 57 0H25l-1-190h30c1 10-1 24 2 32 11-22 29-35 61-36" id="af"/><path fill="#1d262b" d="M59-47c-2 24 18 29 38 22v24C64 9 27 4 27-40v-127H5v-23h24l9-43h21v43h35v23H59v120" id="ag"/><path fill="#1d262b" d="M30-248c118-7 216 8 213 122C240-48 200 0 122 0H30v-248zM63-27c89 8 146-16 146-99s-60-101-146-95v194" id="ah"/><g id="b"><use transform="matrix(0.06172839506172839,0,0,0.06172839506172839,0,0)" xlink:href="#ab"/><use transform="matrix(0.06172839506172839,0,0,0.06172839506172839,8.641975308641975,0)" xlink:href="#V"/><use transform="matrix(0.06172839506172839,0,0,0.06172839506172839,24.629629629629626,0)" xlink:href="#ac"/><use transform="matrix(0.06172839506172839,0,0,0.06172839506172839,29.50617283950617,0)" xlink:href="#ad"/><use transform="matrix(0.06172839506172839,0,0,0.06172839506172839,34.382716049382715,0)" xlink:href="#ae"/><use transform="matrix(0.06172839506172839,0,0,0.06172839506172839,46.72839506172839,0)" xlink:href="#af"/><use transform="matrix(0.06172839506172839,0,0,0.06172839506172839,59.07407407407407,0)" xlink:href="#ag"/><use transform="matrix(0.06172839506172839,0,0,0.06172839506172839,65.24691358024691,0)" xlink:href="#ae"/><use transform="matrix(0.06172839506172839,0,0,0.06172839506172839,77.5925925925926,0)" xlink:href="#X"/><use transform="matrix(0.06172839506172839,0,0,0.06172839506172839,83.76543209876543,0)" xlink:href="#ah"/></g><path fill="#1d262b" d="M100-194c62-1 85 37 85 99 1 63-27 99-86 99S16-35 15-95c0-66 28-99 85-99zM99-20c44 1 53-31 53-75 0-43-8-75-51-75s-53 32-53 75 10 74 51 75" id="ai"/><path fill="#1d262b" d="M210-169c-67 3-38 105-44 169h-31v-121c0-29-5-50-35-48C34-165 62-65 56 0H25l-1-190h30c1 10-1 24 2 32 10-44 99-50 107 0 11-21 27-35 58-36 85-2 47 119 55 194h-31v-121c0-29-5-49-35-48" id="aj"/><path fill="#1d262b" d="M115-194c53 0 69 39 70 98 0 66-23 100-70 100C84 3 66-7 56-30L54 0H23l1-261h32v101c10-23 28-34 59-34zm-8 174c40 0 45-34 45-75 0-40-5-75-45-74-42 0-51 32-51 76 0 43 10 73 51 73" id="ak"/><path fill="#1d262b" d="M114-163C36-179 61-72 57 0H25l-1-190h30c1 12-1 29 2 39 6-27 23-49 58-41v29" id="al"/><g id="c"><use transform="matrix(0.06172839506172839,0,0,0.06172839506172839,0,0)" xlink:href="#Z"/><use transform="matrix(0.06172839506172839,0,0,0.06172839506172839,15.987654320987653,0)" xlink:href="#ai"/><use transform="matrix(0.06172839506172839,0,0,0.06172839506172839,28.333333333333332,0)" xlink:href="#aj"/><use transform="matrix(0.06172839506172839,0,0,0.06172839506172839,46.79012345679012,0)" xlink:href="#ak"/><use transform="matrix(0.06172839506172839,0,0,0.06172839506172839,59.1358024691358,0)" xlink:href="#al"/><use transform="matrix(0.06172839506172839,0,0,0.06172839506172839,66.48148148148148,0)" xlink:href="#ae"/></g><path fill="#1d262b" d="M205 0l-28-72H64L36 0H1l101-248h38L239 0h-34zm-38-99l-47-123c-12 45-31 82-46 123h93" id="am"/><path fill="#1d262b" d="M115-194c55 1 70 41 70 98S169 2 115 4C84 4 66-9 55-30l1 105H24l-1-265h31l2 30c10-21 28-34 59-34zm-8 174c40 0 45-34 45-75s-6-73-45-74c-42 0-51 32-51 76 0 43 10 73 51 73" id="an"/><path fill="#1d262b" d="M85-194c31 0 48 13 60 33l-1-100h32l1 261h-30c-2-10 0-23-3-31C134-8 116 4 85 4 32 4 16-35 15-94c0-66 23-100 70-100zm9 24c-40 0-46 34-46 75 0 40 6 74 45 74 42 0 51-32 51-76 0-42-9-74-50-73" id="ao"/><g id="d"><use transform="matrix(0.06172839506172839,0,0,0.06172839506172839,0,0)" xlink:href="#am"/><use transform="matrix(0.06172839506172839,0,0,0.06172839506172839,14.814814814814813,0)" xlink:href="#an"/><use transform="matrix(0.06172839506172839,0,0,0.06172839506172839,27.160493827160494,0)" xlink:href="#ae"/><use transform="matrix(0.06172839506172839,0,0,0.06172839506172839,39.50617283950617,0)" xlink:href="#ac"/><use transform="matrix(0.06172839506172839,0,0,0.06172839506172839,44.382716049382715,0)" xlink:href="#ac"/><use transform="matrix(0.06172839506172839,0,0,0.06172839506172839,49.25925925925926,0)" xlink:href="#ad"/><use transform="matrix(0.06172839506172839,0,0,0.06172839506172839,54.135802469135804,0)" xlink:href="#ao"/><use transform="matrix(0.06172839506172839,0,0,0.06172839506172839,66.48148148148148,0)" xlink:href="#ai"/></g><path fill="#1d262b" d="M141-36C126-15 110 5 73 4 37 3 15-17 15-53c-1-64 63-63 125-63 3-35-9-54-41-54-24 1-41 7-42 31l-33-3c5-37 33-52 76-52 45 0 72 20 72 64v82c-1 20 7 32 28 27v20c-31 9-61-2-59-35zM48-53c0 20 12 33 32 33 41-3 63-29 60-74-43 2-92-5-92 41" id="ap"/><g id="e"><use transform="matrix(0.06172839506172839,0,0,0.06172839506172839,0,0)" xlink:href="#Y"/><use transform="matrix(0.06172839506172839,0,0,0.06172839506172839,14.814814814814813,0)" xlink:href="#aj"/><use transform="matrix(0.06172839506172839,0,0,0.06172839506172839,33.2716049382716,0)" xlink:href="#ap"/><use transform="matrix(0.06172839506172839,0,0,0.06172839506172839,45.61728395061728,0)" xlink:href="#ad"/><use transform="matrix(0.06172839506172839,0,0,0.06172839506172839,50.49382716049382,0)" xlink:href="#ac"/></g><path fill="#1d262b" d="M96-169c-40 0-48 33-48 73s9 75 48 75c24 0 41-14 43-38l32 2c-6 37-31 61-74 61-59 0-76-41-82-99-10-93 101-131 147-64 4 7 5 14 7 22l-32 3c-4-21-16-35-41-35" id="aq"/><g id="f"><use transform="matrix(0.06172839506172839,0,0,0.06172839506172839,0,0)" xlink:href="#ah"/><use transform="matrix(0.06172839506172839,0,0,0.06172839506172839,15.987654320987653,0)" xlink:href="#ad"/><use transform="matrix(0.06172839506172839,0,0,0.06172839506172839,20.864197530864196,0)" xlink:href="#al"/><use transform="matrix(0.06172839506172839,0,0,0.06172839506172839,28.209876543209873,0)" xlink:href="#ae"/><use transform="matrix(0.06172839506172839,0,0,0.06172839506172839,40.55555555555555,0)" xlink:href="#aq"/><use transform="matrix(0.06172839506172839,0,0,0.06172839506172839,51.66666666666666,0)" xlink:href="#aq"/><use transform="matrix(0.06172839506172839,0,0,0.06172839506172839,62.77777777777777,0)" xlink:href="#ad"/><use transform="matrix(0.06172839506172839,0,0,0.06172839506172839,67.65432098765432,0)" xlink:href="#ai"/><use transform="matrix(0.06172839506172839,0,0,0.06172839506172839,80,0)" xlink:href="#af"/></g><path fill="#1d262b" d="M135-143c-3-34-86-38-87 0 15 53 115 12 119 90S17 21 10-45l28-5c4 36 97 45 98 0-10-56-113-15-118-90-4-57 82-63 122-42 12 7 21 19 24 35" id="ar"/><path fill="#1d262b" d="M118-194c89-4 53 116 60 194h-32v-121c0-31-8-49-39-48C35-167 63-67 58 0H26l-1-190h30c1 10-1 24 2 32 11-22 29-35 61-36zm47-64c-3 23-9 48-36 47-26-1-65-44-74 0H39c4-23 8-48 36-47s64 44 74 0h16" id="as"/><g id="g"><use transform="matrix(0.06172839506172839,0,0,0.06172839506172839,0,0)" xlink:href="#V"/><use transform="matrix(0.06172839506172839,0,0,0.06172839506172839,15.987654320987653,0)" xlink:href="#ai"/><use transform="matrix(0.06172839506172839,0,0,0.06172839506172839,28.333333333333332,0)" xlink:href="#af"/><use transform="matrix(0.06172839506172839,0,0,0.06172839506172839,40.67901234567901,0)" xlink:href="#ag"/><use transform="matrix(0.06172839506172839,0,0,0.06172839506172839,46.851851851851855,0)" xlink:href="#al"/><use transform="matrix(0.06172839506172839,0,0,0.06172839506172839,54.19753086419753,0)" xlink:href="#ap"/><use transform="matrix(0.06172839506172839,0,0,0.06172839506172839,66.54320987654322,0)" xlink:href="#ar"/><use transform="matrix(0.06172839506172839,0,0,0.06172839506172839,77.65432098765433,0)" xlink:href="#ae"/><use transform="matrix(0.06172839506172839,0,0,0.06172839506172839,90.00000000000001,0)" xlink:href="#as"/><use transform="matrix(0.06172839506172839,0,0,0.06172839506172839,102.3456790123457,0)" xlink:href="#ap"/></g><path fill="#1d262b" d="M101-234c-31-9-42 10-38 44h38v23H63V0H32v-167H5v-23h27c-7-52 17-82 69-68v24" id="at"/><g id="h"><use transform="matrix(0.06172839506172839,0,0,0.06172839506172839,0,0)" xlink:href="#aa"/><use transform="matrix(0.06172839506172839,0,0,0.06172839506172839,11.049382716049381,0)" xlink:href="#ae"/><use transform="matrix(0.06172839506172839,0,0,0.06172839506172839,23.39506172839506,0)" xlink:href="#ac"/><use transform="matrix(0.06172839506172839,0,0,0.06172839506172839,28.2716049382716,0)" xlink:href="#ae"/><use transform="matrix(0.06172839506172839,0,0,0.06172839506172839,40.61728395061728,0)" xlink:href="#at"/><use transform="matrix(0.06172839506172839,0,0,0.06172839506172839,46.79012345679012,0)" xlink:href="#ai"/><use transform="matrix(0.06172839506172839,0,0,0.06172839506172839,59.1358024691358,0)" xlink:href="#af"/><use transform="matrix(0.06172839506172839,0,0,0.06172839506172839,71.48148148148148,0)" xlink:href="#ai"/></g><path fill="#1d262b" d="M30-248c87 1 191-15 191 75 0 78-77 80-158 76V0H30v-248zm33 125c57 0 124 11 124-50 0-59-68-47-124-48v98" id="au"/><path fill="#1d262b" d="M233-177c-1 41-23 64-60 70L243 0h-38l-65-103H63V0H30v-248c88 3 205-21 203 71zM63-129c60-2 137 13 137-47 0-61-80-42-137-45v92" id="av"/><path fill="#1d262b" d="M140-251c81 0 123 46 123 126C263-46 219 4 140 4 59 4 17-45 17-125s42-126 123-126zm0 227c63 0 89-41 89-101s-29-99-89-99c-61 0-89 39-89 99S79-25 140-24" id="aw"/><path fill="#1d262b" d="M232-93c-1 65-40 97-104 97C67 4 28-28 28-90v-158h33c8 89-33 224 67 224 102 0 64-133 71-224h33v155" id="ax"/><g id="i"><use transform="matrix(0.06172839506172839,0,0,0.06172839506172839,0,0)" xlink:href="#au"/><use transform="matrix(0.06172839506172839,0,0,0.06172839506172839,14.814814814814813,0)" xlink:href="#av"/><use transform="matrix(0.06172839506172839,0,0,0.06172839506172839,30.80246913580247,0)" xlink:href="#aw"/><use transform="matrix(0.06172839506172839,0,0,0.06172839506172839,48.08641975308642,0)" xlink:href="#ah"/><use transform="matrix(0.06172839506172839,0,0,0.06172839506172839,64.07407407407408,0)" xlink:href="#ax"/><use transform="matrix(0.06172839506172839,0,0,0.06172839506172839,80.06172839506173,0)" xlink:href="#V"/><use transform="matrix(0.06172839506172839,0,0,0.06172839506172839,96.0493827160494,0)" xlink:href="#aa"/><use transform="matrix(0.06172839506172839,0,0,0.06172839506172839,109.13580246913581,0)" xlink:href="#aw"/></g><path fill="#1d262b" d="M84 4C-5 8 30-112 23-190h32v120c0 31 7 50 39 49 72-2 45-101 50-169h31l1 190h-30c-1-10 1-25-2-33-11 22-28 36-60 37" id="ay"/><g id="j"><use transform="matrix(0.06172839506172839,0,0,0.06172839506172839,0,0)" xlink:href="#ab"/><use transform="matrix(0.06172839506172839,0,0,0.06172839506172839,8.641975308641975,0)" xlink:href="#au"/><use transform="matrix(0.06172839506172839,0,0,0.06172839506172839,23.456790123456788,0)" xlink:href="#al"/><use transform="matrix(0.06172839506172839,0,0,0.06172839506172839,30.80246913580247,0)" xlink:href="#ai"/><use transform="matrix(0.06172839506172839,0,0,0.06172839506172839,43.148148148148145,0)" xlink:href="#ao"/><use transform="matrix(0.06172839506172839,0,0,0.06172839506172839,55.49382716049382,0)" xlink:href="#ay"/><use transform="matrix(0.06172839506172839,0,0,0.06172839506172839,67.8395061728395,0)" xlink:href="#aq"/><use transform="matrix(0.06172839506172839,0,0,0.06172839506172839,78.95061728395062,0)" xlink:href="#ag"/><use transform="matrix(0.06172839506172839,0,0,0.06172839506172839,85.12345679012346,0)" xlink:href="#ai"/><use transform="matrix(0.06172839506172839,0,0,0.06172839506172839,97.46913580246914,0)" xlink:href="#X"/><use transform="matrix(0.06172839506172839,0,0,0.06172839506172839,103.64197530864197,0)" xlink:href="#ah"/></g><path fill="#1d262b" d="M177-190C167-65 218 103 67 71c-23-6-38-20-44-43l32-5c15 47 100 32 89-28v-30C133-14 115 1 83 1 29 1 15-40 15-95c0-56 16-97 71-98 29-1 48 16 59 35 1-10 0-23 2-32h30zM94-22c36 0 50-32 50-73 0-42-14-75-50-75-39 0-46 34-46 75s6 73 46 73" id="az"/><g id="k"><use transform="matrix(0.06172839506172839,0,0,0.06172839506172839,0,0)" xlink:href="#ah"/><use transform="matrix(0.06172839506172839,0,0,0.06172839506172839,15.987654320987653,0)" xlink:href="#ae"/><use transform="matrix(0.06172839506172839,0,0,0.06172839506172839,28.333333333333332,0)" xlink:href="#ar"/><use transform="matrix(0.06172839506172839,0,0,0.06172839506172839,39.44444444444444,0)" xlink:href="#aq"/><use transform="matrix(0.06172839506172839,0,0,0.06172839506172839,50.55555555555556,0)" xlink:href="#al"/><use transform="matrix(0.06172839506172839,0,0,0.06172839506172839,57.901234567901234,0)" xlink:href="#ad"/><use transform="matrix(0.06172839506172839,0,0,0.06172839506172839,62.77777777777778,0)" xlink:href="#an"/><use transform="matrix(0.06172839506172839,0,0,0.06172839506172839,75.12345679012346,0)" xlink:href="#aq"/><use transform="matrix(0.06172839506172839,0,0,0.06172839506172839,86.23456790123457,0)" xlink:href="#ad"/><use transform="matrix(0.06172839506172839,0,0,0.06172839506172839,91.11111111111111,0)" xlink:href="#ai"/><use transform="matrix(0.06172839506172839,0,0,0.06172839506172839,103.4567901234568,0)" xlink:href="#af"/><use transform="matrix(0.06172839506172839,0,0,0.06172839506172839,115.80246913580248,0)" xlink:href="#W"/><use transform="matrix(0.06172839506172839,0,0,0.06172839506172839,128.14814814814815,0)" xlink:href="#ap"/><use transform="matrix(0.06172839506172839,0,0,0.06172839506172839,140.49382716049382,0)" xlink:href="#al"/><use transform="matrix(0.06172839506172839,0,0,0.06172839506172839,147.8395061728395,0)" xlink:href="#az"/><use transform="matrix(0.06172839506172839,0,0,0.06172839506172839,160.18518518518516,0)" xlink:href="#ap"/></g><g id="l"><use transform="matrix(0.06172839506172839,0,0,0.06172839506172839,0,0)" xlink:href="#ah"/><use transform="matrix(0.06172839506172839,0,0,0.06172839506172839,15.987654320987653,0)" xlink:href="#ae"/><use transform="matrix(0.06172839506172839,0,0,0.06172839506172839,28.333333333333332,0)" xlink:href="#ar"/><use transform="matrix(0.06172839506172839,0,0,0.06172839506172839,39.44444444444444,0)" xlink:href="#aq"/><use transform="matrix(0.06172839506172839,0,0,0.06172839506172839,50.55555555555556,0)" xlink:href="#al"/><use transform="matrix(0.06172839506172839,0,0,0.06172839506172839,57.901234567901234,0)" xlink:href="#ad"/><use transform="matrix(0.06172839506172839,0,0,0.06172839506172839,62.77777777777778,0)" xlink:href="#an"/><use transform="matrix(0.06172839506172839,0,0,0.06172839506172839,75.12345679012346,0)" xlink:href="#aq"/><use transform="matrix(0.06172839506172839,0,0,0.06172839506172839,86.23456790123457,0)" xlink:href="#ad"/><use transform="matrix(0.06172839506172839,0,0,0.06172839506172839,91.11111111111111,0)" xlink:href="#ai"/><use transform="matrix(0.06172839506172839,0,0,0.06172839506172839,103.4567901234568,0)" xlink:href="#af"/><use transform="matrix(0.06172839506172839,0,0,0.06172839506172839,115.80246913580248,0)" xlink:href="#V"/><use transform="matrix(0.06172839506172839,0,0,0.06172839506172839,131.79012345679013,0)" xlink:href="#ai"/><use transform="matrix(0.06172839506172839,0,0,0.06172839506172839,144.1358024691358,0)" xlink:href="#al"/><use transform="matrix(0.06172839506172839,0,0,0.06172839506172839,151.48148148148147,0)" xlink:href="#ag"/><use transform="matrix(0.06172839506172839,0,0,0.06172839506172839,157.6543209876543,0)" xlink:href="#ap"/></g><g id="m"><use transform="matrix(0.06172839506172839,0,0,0.06172839506172839,0,0)" xlink:href="#au"/><use transform="matrix(0.06172839506172839,0,0,0.06172839506172839,14.814814814814813,0)" xlink:href="#al"/><use transform="matrix(0.06172839506172839,0,0,0.06172839506172839,22.160493827160494,0)" xlink:href="#ae"/><use transform="matrix(0.06172839506172839,0,0,0.06172839506172839,34.50617283950617,0)" xlink:href="#aq"/><use transform="matrix(0.06172839506172839,0,0,0.06172839506172839,45.61728395061728,0)" xlink:href="#ad"/><use transform="matrix(0.06172839506172839,0,0,0.06172839506172839,50.49382716049382,0)" xlink:href="#ai"/></g><path fill="#1d262b" d="M63-220v92h138v28H63V0H30v-248h175v28H63" id="aA"/><g id="n"><use transform="matrix(0.06172839506172839,0,0,0.06172839506172839,0,0)" xlink:href="#aA"/><use transform="matrix(0.06172839506172839,0,0,0.06172839506172839,13.518518518518517,0)" xlink:href="#ai"/><use transform="matrix(0.06172839506172839,0,0,0.06172839506172839,25.864197530864196,0)" xlink:href="#ag"/><use transform="matrix(0.06172839506172839,0,0,0.06172839506172839,32.03703703703704,0)" xlink:href="#ai"/></g><path fill="#1d262b" d="M185-189c-5-48-123-54-124 2 14 75 158 14 163 119 3 78-121 87-175 55-17-10-28-26-33-46l33-7c5 56 141 63 141-1 0-78-155-14-162-118-5-82 145-84 179-34 5 7 8 16 11 25" id="aB"/><path fill="#1d262b" d="M143 0L79-87 56-68V0H24v-261h32v163l83-92h37l-77 82L181 0h-38" id="aC"/><g id="o"><use transform="matrix(0.06172839506172839,0,0,0.06172839506172839,0,0)" xlink:href="#aB"/><use transform="matrix(0.06172839506172839,0,0,0.06172839506172839,14.814814814814813,0)" xlink:href="#ag"/><use transform="matrix(0.06172839506172839,0,0,0.06172839506172839,20.98765432098765,0)" xlink:href="#ai"/><use transform="matrix(0.06172839506172839,0,0,0.06172839506172839,33.33333333333333,0)" xlink:href="#aq"/><use transform="matrix(0.06172839506172839,0,0,0.06172839506172839,44.44444444444444,0)" xlink:href="#aC"/></g><g id="p"><use transform="matrix(0.06172839506172839,0,0,0.06172839506172839,0,0)" xlink:href="#ah"/><use transform="matrix(0.06172839506172839,0,0,0.06172839506172839,15.987654320987653,0)" xlink:href="#ae"/><use transform="matrix(0.06172839506172839,0,0,0.06172839506172839,28.333333333333332,0)" xlink:href="#ar"/><use transform="matrix(0.06172839506172839,0,0,0.06172839506172839,39.44444444444444,0)" xlink:href="#ag"/><use transform="matrix(0.06172839506172839,0,0,0.06172839506172839,45.617283950617285,0)" xlink:href="#ap"/><use transform="matrix(0.06172839506172839,0,0,0.06172839506172839,57.96296296296296,0)" xlink:href="#aq"/><use transform="matrix(0.06172839506172839,0,0,0.06172839506172839,69.07407407407408,0)" xlink:href="#ap"/><use transform="matrix(0.06172839506172839,0,0,0.06172839506172839,81.41975308641976,0)" xlink:href="#ao"/><use transform="matrix(0.06172839506172839,0,0,0.06172839506172839,93.76543209876544,0)" xlink:href="#ai"/></g><g id="q"><use transform="matrix(0.06172839506172839,0,0,0.06172839506172839,0,0)" xlink:href="#ah"/><use transform="matrix(0.06172839506172839,0,0,0.06172839506172839,15.987654320987653,0)" xlink:href="#ad"/><use transform="matrix(0.06172839506172839,0,0,0.06172839506172839,20.864197530864196,0)" xlink:href="#ar"/><use transform="matrix(0.06172839506172839,0,0,0.06172839506172839,31.975308641975307,0)" xlink:href="#an"/><use transform="matrix(0.06172839506172839,0,0,0.06172839506172839,44.32098765432099,0)" xlink:href="#ai"/><use transform="matrix(0.06172839506172839,0,0,0.06172839506172839,56.666666666666664,0)" xlink:href="#af"/><use transform="matrix(0.06172839506172839,0,0,0.06172839506172839,69.01234567901234,0)" xlink:href="#ad"/><use transform="matrix(0.06172839506172839,0,0,0.06172839506172839,73.88888888888889,0)" xlink:href="#ak"/><use transform="matrix(0.06172839506172839,0,0,0.06172839506172839,86.23456790123457,0)" xlink:href="#ac"/><use transform="matrix(0.06172839506172839,0,0,0.06172839506172839,91.11111111111111,0)" xlink:href="#ae"/></g><g id="r"><use transform="matrix(0.06172839506172839,0,0,0.06172839506172839,0,0)" xlink:href="#aB"/><use transform="matrix(0.06172839506172839,0,0,0.06172839506172839,14.814814814814813,0)" xlink:href="#ac"/><use transform="matrix(0.06172839506172839,0,0,0.06172839506172839,19.691358024691354,0)" xlink:href="#ay"/><use transform="matrix(0.06172839506172839,0,0,0.06172839506172839,32.03703703703703,0)" xlink:href="#az"/></g><g id="s"><use transform="matrix(0.06172839506172839,0,0,0.06172839506172839,0,0)" xlink:href="#au"/><use transform="matrix(0.06172839506172839,0,0,0.06172839506172839,14.814814814814813,0)" xlink:href="#Y"/><use transform="matrix(0.06172839506172839,0,0,0.06172839506172839,29.629629629629626,0)" xlink:href="#ah"/><use transform="matrix(0.06172839506172839,0,0,0.06172839506172839,45.61728395061728,0)" xlink:href="#X"/><use transform="matrix(0.06172839506172839,0,0,0.06172839506172839,51.79012345679012,0)" xlink:href="#ah"/><use transform="matrix(0.06172839506172839,0,0,0.06172839506172839,67.77777777777777,0)" xlink:href="#aw"/></g><g id="t"><use transform="matrix(0.06172839506172839,0,0,0.06172839506172839,0,0)" xlink:href="#ab"/><use transform="matrix(0.06172839506172839,0,0,0.06172839506172839,8.641975308641975,0)" xlink:href="#au"/><use transform="matrix(0.06172839506172839,0,0,0.06172839506172839,23.456790123456788,0)" xlink:href="#ae"/><use transform="matrix(0.06172839506172839,0,0,0.06172839506172839,35.80246913580247,0)" xlink:href="#ao"/><use transform="matrix(0.06172839506172839,0,0,0.06172839506172839,48.148148148148145,0)" xlink:href="#ad"/><use transform="matrix(0.06172839506172839,0,0,0.06172839506172839,53.02469135802469,0)" xlink:href="#ao"/><use transform="matrix(0.06172839506172839,0,0,0.06172839506172839,65.37037037037037,0)" xlink:href="#ai"/><use transform="matrix(0.06172839506172839,0,0,0.06172839506172839,77.71604938271605,0)" xlink:href="#X"/><use transform="matrix(0.06172839506172839,0,0,0.06172839506172839,83.88888888888889,0)" xlink:href="#ah"/></g><g id="u"><use transform="matrix(0.06172839506172839,0,0,0.06172839506172839,0,0)" xlink:href="#aw"/><use transform="matrix(0.06172839506172839,0,0,0.06172839506172839,17.28395061728395,0)" xlink:href="#al"/><use transform="matrix(0.06172839506172839,0,0,0.06172839506172839,24.629629629629626,0)" xlink:href="#ao"/><use transform="matrix(0.06172839506172839,0,0,0.06172839506172839,36.9753086419753,0)" xlink:href="#ae"/><use transform="matrix(0.06172839506172839,0,0,0.06172839506172839,49.32098765432098,0)" xlink:href="#af"/><use transform="matrix(0.06172839506172839,0,0,0.06172839506172839,61.66666666666666,0)" xlink:href="#X"/><use transform="matrix(0.06172839506172839,0,0,0.06172839506172839,67.83950617283949,0)" xlink:href="#ah"/></g><g id="v"><use transform="matrix(0.06172839506172839,0,0,0.06172839506172839,0,0)" xlink:href="#ah"/><use transform="matrix(0.06172839506172839,0,0,0.06172839506172839,15.987654320987653,0)" xlink:href="#ae"/><use transform="matrix(0.06172839506172839,0,0,0.06172839506172839,28.333333333333332,0)" xlink:href="#ag"/><use transform="matrix(0.06172839506172839,0,0,0.06172839506172839,34.50617283950617,0)" xlink:href="#ap"/><use transform="matrix(0.06172839506172839,0,0,0.06172839506172839,46.85185185185185,0)" xlink:href="#ac"/><use transform="matrix(0.06172839506172839,0,0,0.06172839506172839,51.72839506172839,0)" xlink:href="#ac"/><use transform="matrix(0.06172839506172839,0,0,0.06172839506172839,56.60493827160494,0)" xlink:href="#ae"/><use transform="matrix(0.06172839506172839,0,0,0.06172839506172839,68.95061728395062,0)" xlink:href="#X"/><use transform="matrix(0.06172839506172839,0,0,0.06172839506172839,75.12345679012346,0)" xlink:href="#ah"/></g><path fill="#1d262b" d="M240 0l2-218c-23 76-54 145-80 218h-23L58-218 59 0H30v-248h44l77 211c21-75 51-140 76-211h43V0h-30" id="aD"/><g id="w"><use transform="matrix(0.06172839506172839,0,0,0.06172839506172839,0,0)" xlink:href="#aD"/><use transform="matrix(0.06172839506172839,0,0,0.06172839506172839,18.456790123456788,0)" xlink:href="#ai"/><use transform="matrix(0.06172839506172839,0,0,0.06172839506172839,30.80246913580247,0)" xlink:href="#af"/><use transform="matrix(0.06172839506172839,0,0,0.06172839506172839,43.148148148148145,0)" xlink:href="#ag"/><use transform="matrix(0.06172839506172839,0,0,0.06172839506172839,49.32098765432099,0)" xlink:href="#ai"/><use transform="matrix(0.06172839506172839,0,0,0.06172839506172839,61.666666666666664,0)" xlink:href="#aa"/><use transform="matrix(0.06172839506172839,0,0,0.06172839506172839,72.71604938271605,0)" xlink:href="#ai"/><use transform="matrix(0.06172839506172839,0,0,0.06172839506172839,85.06172839506173,0)" xlink:href="#ag"/><use transform="matrix(0.06172839506172839,0,0,0.06172839506172839,91.23456790123457,0)" xlink:href="#ap"/><use transform="matrix(0.06172839506172839,0,0,0.06172839506172839,103.58024691358025,0)" xlink:href="#ac"/></g><path fill="#1d262b" d="M108 0H70L1-190h34L89-25l56-165h34" id="aE"/><g id="x"><use transform="matrix(0.06172839506172839,0,0,0.06172839506172839,0,0)" xlink:href="#Y"/><use transform="matrix(0.06172839506172839,0,0,0.06172839506172839,14.814814814814813,0)" xlink:href="#af"/><use transform="matrix(0.06172839506172839,0,0,0.06172839506172839,27.160493827160494,0)" xlink:href="#aE"/><use transform="matrix(0.06172839506172839,0,0,0.06172839506172839,38.27160493827161,0)" xlink:href="#ad"/><use transform="matrix(0.06172839506172839,0,0,0.06172839506172839,43.14814814814815,0)" xlink:href="#ai"/></g><g id="y"><use transform="matrix(0.06172839506172839,0,0,0.06172839506172839,0,0)" xlink:href="#V"/><use transform="matrix(0.06172839506172839,0,0,0.06172839506172839,15.987654320987653,0)" xlink:href="#ai"/><use transform="matrix(0.06172839506172839,0,0,0.06172839506172839,28.333333333333332,0)" xlink:href="#ar"/><use transform="matrix(0.06172839506172839,0,0,0.06172839506172839,39.44444444444444,0)" xlink:href="#ag"/><use transform="matrix(0.06172839506172839,0,0,0.06172839506172839,45.617283950617285,0)" xlink:href="#ai"/><use transform="matrix(0.06172839506172839,0,0,0.06172839506172839,57.96296296296296,0)" xlink:href="#Y"/><use transform="matrix(0.06172839506172839,0,0,0.06172839506172839,72.77777777777777,0)" xlink:href="#af"/><use transform="matrix(0.06172839506172839,0,0,0.06172839506172839,85.12345679012346,0)" xlink:href="#aE"/><use transform="matrix(0.06172839506172839,0,0,0.06172839506172839,96.23456790123457,0)" xlink:href="#ad"/><use transform="matrix(0.06172839506172839,0,0,0.06172839506172839,101.11111111111111,0)" xlink:href="#ai"/></g><g id="z"><use transform="matrix(0.06172839506172839,0,0,0.06172839506172839,0,0)" xlink:href="#aw"/><use transform="matrix(0.06172839506172839,0,0,0.06172839506172839,17.28395061728395,0)" xlink:href="#av"/><use transform="matrix(0.06172839506172839,0,0,0.06172839506172839,33.2716049382716,0)" xlink:href="#ah"/><use transform="matrix(0.06172839506172839,0,0,0.06172839506172839,49.25925925925925,0)" xlink:href="#Y"/><use transform="matrix(0.06172839506172839,0,0,0.06172839506172839,64.07407407407406,0)" xlink:href="#Z"/></g><g id="A"><use transform="matrix(0.06172839506172839,0,0,0.06172839506172839,0,0)" xlink:href="#ab"/><use transform="matrix(0.06172839506172839,0,0,0.06172839506172839,8.641975308641975,0)" xlink:href="#aw"/><use transform="matrix(0.06172839506172839,0,0,0.06172839506172839,25.925925925925924,0)" xlink:href="#al"/><use transform="matrix(0.06172839506172839,0,0,0.06172839506172839,33.2716049382716,0)" xlink:href="#ao"/><use transform="matrix(0.06172839506172839,0,0,0.06172839506172839,45.61728395061728,0)" xlink:href="#ae"/><use transform="matrix(0.06172839506172839,0,0,0.06172839506172839,57.962962962962955,0)" xlink:href="#af"/><use transform="matrix(0.06172839506172839,0,0,0.06172839506172839,70.30864197530863,0)" xlink:href="#X"/><use transform="matrix(0.06172839506172839,0,0,0.06172839506172839,76.48148148148147,0)" xlink:href="#ah"/></g><g id="B"><use transform="matrix(0.06172839506172839,0,0,0.06172839506172839,0,0)" xlink:href="#V"/><use transform="matrix(0.06172839506172839,0,0,0.06172839506172839,15.987654320987653,0)" xlink:href="#ac"/><use transform="matrix(0.06172839506172839,0,0,0.06172839506172839,20.864197530864196,0)" xlink:href="#ad"/><use transform="matrix(0.06172839506172839,0,0,0.06172839506172839,25.74074074074074,0)" xlink:href="#ae"/><use transform="matrix(0.06172839506172839,0,0,0.06172839506172839,38.08641975308642,0)" xlink:href="#af"/><use transform="matrix(0.06172839506172839,0,0,0.06172839506172839,50.432098765432094,0)" xlink:href="#ag"/><use transform="matrix(0.06172839506172839,0,0,0.06172839506172839,56.60493827160494,0)" xlink:href="#ae"/><use transform="matrix(0.06172839506172839,0,0,0.06172839506172839,68.95061728395062,0)" xlink:href="#X"/><use transform="matrix(0.06172839506172839,0,0,0.06172839506172839,75.12345679012346,0)" xlink:href="#ah"/></g><path fill="#1d262b" d="M143 4C61 4 22-44 18-125c-5-107 100-154 193-111 17 8 29 25 37 43l-32 9c-13-25-37-40-76-40-61 0-88 39-88 99 0 61 29 100 91 101 35 0 62-11 79-27v-45h-74v-28h105v86C228-13 192 4 143 4" id="aF"/><g id="C"><use transform="matrix(0.06172839506172839,0,0,0.06172839506172839,0,0)" xlink:href="#V"/><use transform="matrix(0.06172839506172839,0,0,0.06172839506172839,15.987654320987653,0)" xlink:href="#am"/><use transform="matrix(0.06172839506172839,0,0,0.06172839506172839,29.1358024691358,0)" xlink:href="#aa"/><use transform="matrix(0.06172839506172839,0,0,0.06172839506172839,42.654320987654316,0)" xlink:href="#Y"/><use transform="matrix(0.06172839506172839,0,0,0.06172839506172839,57.469135802469125,0)" xlink:href="#aF"/><use transform="matrix(0.06172839506172839,0,0,0.06172839506172839,74.75308641975307,0)" xlink:href="#aw"/><use transform="matrix(0.06172839506172839,0,0,0.06172839506172839,92.03703703703702,0)" xlink:href="#av"/><use transform="matrix(0.06172839506172839,0,0,0.06172839506172839,108.02469135802468,0)" xlink:href="#X"/><use transform="matrix(0.06172839506172839,0,0,0.06172839506172839,114.19753086419752,0)" xlink:href="#am"/></g><g id="D"><use transform="matrix(0.06172839506172839,0,0,0.06172839506172839,0,0)" xlink:href="#ab"/><use transform="matrix(0.06172839506172839,0,0,0.06172839506172839,8.641975308641975,0)" xlink:href="#V"/><use transform="matrix(0.06172839506172839,0,0,0.06172839506172839,24.629629629629626,0)" xlink:href="#ap"/><use transform="matrix(0.06172839506172839,0,0,0.06172839506172839,36.9753086419753,0)" xlink:href="#ag"/><use transform="matrix(0.06172839506172839,0,0,0.06172839506172839,43.148148148148145,0)" xlink:href="#ae"/><use transform="matrix(0.06172839506172839,0,0,0.06172839506172839,55.49382716049382,0)" xlink:href="#az"/><use transform="matrix(0.06172839506172839,0,0,0.06172839506172839,67.8395061728395,0)" xlink:href="#ai"/><use transform="matrix(0.06172839506172839,0,0,0.06172839506172839,80.18518518518519,0)" xlink:href="#al"/><use transform="matrix(0.06172839506172839,0,0,0.06172839506172839,87.53086419753087,0)" xlink:href="#ad"/><use transform="matrix(0.06172839506172839,0,0,0.06172839506172839,92.40740740740742,0)" xlink:href="#ap"/><use transform="matrix(0.06172839506172839,0,0,0.06172839506172839,104.7530864197531,0)" xlink:href="#X"/><use transform="matrix(0.06172839506172839,0,0,0.06172839506172839,110.92592592592594,0)" xlink:href="#ah"/></g><path fill="#1d262b" d="M-5 72V49h209v23H-5" id="aG"/><path fill="#1d262b" d="M137 0h-34L2-248h35l83 218 83-218h36" id="aH"/><g id="E"><use transform="matrix(0.06172839506172839,0,0,0.06172839506172839,0,0)" xlink:href="#ah"/><use transform="matrix(0.06172839506172839,0,0,0.06172839506172839,15.987654320987653,0)" xlink:href="#am"/><use transform="matrix(0.06172839506172839,0,0,0.06172839506172839,29.1358024691358,0)" xlink:href="#aa"/><use transform="matrix(0.06172839506172839,0,0,0.06172839506172839,42.22222222222222,0)" xlink:href="#aw"/><use transform="matrix(0.06172839506172839,0,0,0.06172839506172839,59.50617283950617,0)" xlink:href="#aB"/><use transform="matrix(0.06172839506172839,0,0,0.06172839506172839,74.32098765432099,0)" xlink:href="#aG"/><use transform="matrix(0.06172839506172839,0,0,0.06172839506172839,86.66666666666667,0)" xlink:href="#Y"/><use transform="matrix(0.06172839506172839,0,0,0.06172839506172839,101.48148148148148,0)" xlink:href="#Z"/><use transform="matrix(0.06172839506172839,0,0,0.06172839506172839,117.46913580246914,0)" xlink:href="#aH"/><use transform="matrix(0.06172839506172839,0,0,0.06172839506172839,132.28395061728395,0)" xlink:href="#X"/><use transform="matrix(0.06172839506172839,0,0,0.06172839506172839,138.45679012345678,0)" xlink:href="#aw"/></g><g id="F"><use transform="matrix(0.06172839506172839,0,0,0.06172839506172839,0,0)" xlink:href="#ab"/><use transform="matrix(0.06172839506172839,0,0,0.06172839506172839,8.641975308641975,0)" xlink:href="#ah"/><use transform="matrix(0.06172839506172839,0,0,0.06172839506172839,24.629629629629626,0)" xlink:href="#ap"/><use transform="matrix(0.06172839506172839,0,0,0.06172839506172839,36.9753086419753,0)" xlink:href="#ag"/><use transform="matrix(0.06172839506172839,0,0,0.06172839506172839,43.148148148148145,0)" xlink:href="#ai"/><use transform="matrix(0.06172839506172839,0,0,0.06172839506172839,55.49382716049382,0)" xlink:href="#ar"/><use transform="matrix(0.06172839506172839,0,0,0.06172839506172839,66.60493827160494,0)" xlink:href="#Y"/><use transform="matrix(0.06172839506172839,0,0,0.06172839506172839,81.41975308641975,0)" xlink:href="#af"/><use transform="matrix(0.06172839506172839,0,0,0.06172839506172839,93.76543209876543,0)" xlink:href="#aE"/><use transform="matrix(0.06172839506172839,0,0,0.06172839506172839,104.87654320987654,0)" xlink:href="#ad"/><use transform="matrix(0.06172839506172839,0,0,0.06172839506172839,109.75308641975309,0)" xlink:href="#ai"/><use transform="matrix(0.06172839506172839,0,0,0.06172839506172839,122.09876543209877,0)" xlink:href="#X"/><use transform="matrix(0.06172839506172839,0,0,0.06172839506172839,128.27160493827162,0)" xlink:href="#ah"/></g><g id="G"><use transform="matrix(0.06172839506172839,0,0,0.06172839506172839,0,0)" xlink:href="#V"/><use transform="matrix(0.06172839506172839,0,0,0.06172839506172839,15.987654320987653,0)" xlink:href="#ac"/><use transform="matrix(0.06172839506172839,0,0,0.06172839506172839,20.864197530864196,0)" xlink:href="#ad"/><use transform="matrix(0.06172839506172839,0,0,0.06172839506172839,25.74074074074074,0)" xlink:href="#ae"/><use transform="matrix(0.06172839506172839,0,0,0.06172839506172839,38.08641975308642,0)" xlink:href="#af"/><use transform="matrix(0.06172839506172839,0,0,0.06172839506172839,50.432098765432094,0)" xlink:href="#ag"/><use transform="matrix(0.06172839506172839,0,0,0.06172839506172839,56.60493827160494,0)" xlink:href="#ae"/></g><g id="H"><use transform="matrix(0.06172839506172839,0,0,0.06172839506172839,0,0)" xlink:href="#ah"/><use transform="matrix(0.06172839506172839,0,0,0.06172839506172839,15.987654320987653,0)" xlink:href="#ad"/><use transform="matrix(0.06172839506172839,0,0,0.06172839506172839,20.864197530864196,0)" xlink:href="#al"/><use transform="matrix(0.06172839506172839,0,0,0.06172839506172839,28.209876543209873,0)" xlink:href="#ae"/><use transform="matrix(0.06172839506172839,0,0,0.06172839506172839,40.55555555555555,0)" xlink:href="#aq"/><use transform="matrix(0.06172839506172839,0,0,0.06172839506172839,51.66666666666666,0)" xlink:href="#aq"/><use transform="matrix(0.06172839506172839,0,0,0.06172839506172839,62.77777777777777,0)" xlink:href="#ad"/><use transform="matrix(0.06172839506172839,0,0,0.06172839506172839,67.65432098765432,0)" xlink:href="#ai"/><use transform="matrix(0.06172839506172839,0,0,0.06172839506172839,80,0)" xlink:href="#af"/><use transform="matrix(0.06172839506172839,0,0,0.06172839506172839,92.34567901234568,0)" xlink:href="#Y"/><use transform="matrix(0.06172839506172839,0,0,0.06172839506172839,107.1604938271605,0)" xlink:href="#af"/><use transform="matrix(0.06172839506172839,0,0,0.06172839506172839,119.50617283950618,0)" xlink:href="#aE"/><use transform="matrix(0.06172839506172839,0,0,0.06172839506172839,130.6172839506173,0)" xlink:href="#ad"/><use transform="matrix(0.06172839506172839,0,0,0.06172839506172839,135.49382716049382,0)" xlink:href="#ai"/></g><g id="I"><use transform="matrix(0.06172839506172839,0,0,0.06172839506172839,0,0)" xlink:href="#V"/><use transform="matrix(0.06172839506172839,0,0,0.06172839506172839,15.987654320987653,0)" xlink:href="#ai"/><use transform="matrix(0.06172839506172839,0,0,0.06172839506172839,28.333333333333332,0)" xlink:href="#ao"/><use transform="matrix(0.06172839506172839,0,0,0.06172839506172839,40.67901234567901,0)" xlink:href="#ad"/><use transform="matrix(0.06172839506172839,0,0,0.06172839506172839,45.55555555555556,0)" xlink:href="#az"/><use transform="matrix(0.06172839506172839,0,0,0.06172839506172839,57.901234567901234,0)" xlink:href="#ai"/><use transform="matrix(0.06172839506172839,0,0,0.06172839506172839,70.24691358024691,0)" xlink:href="#au"/><use transform="matrix(0.06172839506172839,0,0,0.06172839506172839,85.06172839506172,0)" xlink:href="#ai"/><use transform="matrix(0.06172839506172839,0,0,0.06172839506172839,97.4074074074074,0)" xlink:href="#ar"/><use transform="matrix(0.06172839506172839,0,0,0.06172839506172839,108.51851851851852,0)" xlink:href="#ag"/><use transform="matrix(0.06172839506172839,0,0,0.06172839506172839,114.69135802469135,0)" xlink:href="#ap"/><use transform="matrix(0.06172839506172839,0,0,0.06172839506172839,127.03703703703702,0)" xlink:href="#ac"/></g><path fill="#1d262b" d="M190-63c-7 42-38 67-86 67-59 0-84-38-90-98-12-110 154-137 174-36l-49 2c-2-19-15-32-35-32-30 0-35 28-38 64-6 74 65 87 74 30" id="aI"/><path fill="#1d262b" d="M110-194c64 0 96 36 96 99 0 64-35 99-97 99-61 0-95-36-95-99 0-62 34-99 96-99zm-1 164c35 0 45-28 45-65 0-40-10-65-43-65-34 0-45 26-45 65 0 36 10 65 43 65" id="aJ"/><path fill="#1d262b" d="M220-157c-53 9-28 100-34 157h-49v-107c1-27-5-49-29-50C55-147 81-57 75 0H25l-1-190h47c2 12-1 28 3 38 10-53 101-56 108 0 13-22 24-43 59-42 82 1 51 116 57 194h-49v-107c-1-25-5-48-29-50" id="aK"/><path fill="#1d262b" d="M135-194c53 0 70 44 70 98 0 56-19 98-73 100-31 1-45-17-59-34 3 33 2 69 2 105H25l-1-265h48c2 10 0 23 3 31 11-24 29-35 60-35zM114-30c33 0 39-31 40-66 0-38-9-64-40-64-56 0-55 130 0 130" id="aL"/><path fill="#1d262b" d="M135-150c-39-12-60 13-60 57V0H25l-1-190h47c2 13-1 29 3 40 6-28 27-53 61-41v41" id="aM"/><path fill="#1d262b" d="M133-34C117-15 103 5 69 4 32 3 11-16 11-54c-1-60 55-63 116-61 1-26-3-47-28-47-18 1-26 9-28 27l-52-2c7-38 36-58 82-57s74 22 75 68l1 82c-1 14 12 18 25 15v27c-30 8-71 5-69-32zm-48 3c29 0 43-24 42-57-32 0-66-3-65 30 0 17 8 27 23 27" id="aN"/><g id="J"><use transform="matrix(0.06172839506172839,0,0,0.06172839506172839,0,0)" xlink:href="#aI"/><use transform="matrix(0.06172839506172839,0,0,0.06172839506172839,12.345679012345679,0)" xlink:href="#aJ"/><use transform="matrix(0.06172839506172839,0,0,0.06172839506172839,25.864197530864196,0)" xlink:href="#aK"/><use transform="matrix(0.06172839506172839,0,0,0.06172839506172839,45.61728395061728,0)" xlink:href="#aL"/><use transform="matrix(0.06172839506172839,0,0,0.06172839506172839,59.1358024691358,0)" xlink:href="#aM"/><use transform="matrix(0.06172839506172839,0,0,0.06172839506172839,67.77777777777777,0)" xlink:href="#aN"/><use transform="matrix(0.06172839506172839,0,0,0.06172839506172839,80.12345679012346,0)" xlink:href="#aM"/></g><path fill="#1d262b" d="M115-3C79 11 28 4 28-45v-112H4v-33h27l15-45h31v45h36v33H77v99c-1 23 16 31 38 25v30" id="aO"/><path fill="#1d262b" d="M185-48c-13 30-37 53-82 52C43 2 14-33 14-96s30-98 90-98c62 0 83 45 84 108H66c0 31 8 55 39 56 18 0 30-7 34-22zm-45-69c5-46-57-63-70-21-2 6-4 13-4 21h74" id="aP"/><path fill="#1d262b" d="M135-194c87-1 58 113 63 194h-50c-7-57 23-157-34-157-59 0-34 97-39 157H25l-1-190h47c2 12-1 28 3 38 12-26 28-41 61-42" id="aQ"/><g id="K"><use transform="matrix(0.06172839506172839,0,0,0.06172839506172839,0,0)" xlink:href="#aO"/><use transform="matrix(0.06172839506172839,0,0,0.06172839506172839,7.345679012345679,0)" xlink:href="#aP"/><use transform="matrix(0.06172839506172839,0,0,0.06172839506172839,19.691358024691358,0)" xlink:href="#aQ"/><use transform="matrix(0.06172839506172839,0,0,0.06172839506172839,33.20987654320987,0)" xlink:href="#aP"/><use transform="matrix(0.06172839506172839,0,0,0.06172839506172839,45.55555555555555,0)" xlink:href="#aM"/></g><path fill="#1d262b" d="M25 0v-261h50V0H25" id="aR"/><path fill="#1d262b" d="M25-224v-37h50v37H25zM25 0v-190h50V0H25" id="aS"/><path fill="#1d262b" d="M12 0v-35l95-120H19v-35h142v35L67-36h103V0H12" id="aT"/><g id="L"><use transform="matrix(0.06172839506172839,0,0,0.06172839506172839,0,0)" xlink:href="#aM"/><use transform="matrix(0.06172839506172839,0,0,0.06172839506172839,8.641975308641975,0)" xlink:href="#aP"/><use transform="matrix(0.06172839506172839,0,0,0.06172839506172839,20.98765432098765,0)" xlink:href="#aN"/><use transform="matrix(0.06172839506172839,0,0,0.06172839506172839,33.33333333333333,0)" xlink:href="#aR"/><use transform="matrix(0.06172839506172839,0,0,0.06172839506172839,39.50617283950617,0)" xlink:href="#aS"/><use transform="matrix(0.06172839506172839,0,0,0.06172839506172839,45.67901234567901,0)" xlink:href="#aT"/><use transform="matrix(0.06172839506172839,0,0,0.06172839506172839,56.79012345679013,0)" xlink:href="#aN"/><use transform="matrix(0.06172839506172839,0,0,0.06172839506172839,69.13580246913581,0)" xlink:href="#aM"/></g><g id="M"><use transform="matrix(0.06172839506172839,0,0,0.06172839506172839,0,0)" xlink:href="#aO"/><use transform="matrix(0.06172839506172839,0,0,0.06172839506172839,7.345679012345679,0)" xlink:href="#aP"/><use transform="matrix(0.06172839506172839,0,0,0.06172839506172839,19.691358024691358,0)" xlink:href="#aQ"/><use transform="matrix(0.06172839506172839,0,0,0.06172839506172839,33.20987654320987,0)" xlink:href="#aP"/><use transform="matrix(0.06172839506172839,0,0,0.06172839506172839,45.55555555555555,0)" xlink:href="#aM"/></g><g id="N"><use transform="matrix(0.06172839506172839,0,0,0.06172839506172839,0,0)" xlink:href="#aL"/><use transform="matrix(0.06172839506172839,0,0,0.06172839506172839,13.518518518518517,0)" xlink:href="#aP"/><use transform="matrix(0.06172839506172839,0,0,0.06172839506172839,25.864197530864196,0)" xlink:href="#aM"/><use transform="matrix(0.06172839506172839,0,0,0.06172839506172839,34.50617283950617,0)" xlink:href="#aO"/><use transform="matrix(0.06172839506172839,0,0,0.06172839506172839,41.85185185185185,0)" xlink:href="#aP"/><use transform="matrix(0.06172839506172839,0,0,0.06172839506172839,54.197530864197525,0)" xlink:href="#aQ"/><use transform="matrix(0.06172839506172839,0,0,0.06172839506172839,67.71604938271604,0)" xlink:href="#aP"/><use transform="matrix(0.06172839506172839,0,0,0.06172839506172839,80.06172839506172,0)" xlink:href="#aI"/><use transform="matrix(0.06172839506172839,0,0,0.06172839506172839,92.4074074074074,0)" xlink:href="#aP"/><use transform="matrix(0.06172839506172839,0,0,0.06172839506172839,104.75308641975309,0)" xlink:href="#aM"/></g><g id="O"><use transform="matrix(0.06172839506172839,0,0,0.06172839506172839,0,0)" xlink:href="#ah"/><use transform="matrix(0.06172839506172839,0,0,0.06172839506172839,15.987654320987653,0)" xlink:href="#Y"/><use transform="matrix(0.06172839506172839,0,0,0.06172839506172839,30.80246913580247,0)" xlink:href="#aa"/><use transform="matrix(0.06172839506172839,0,0,0.06172839506172839,42.654320987654316,0)" xlink:href="#am"/><use transform="matrix(0.06172839506172839,0,0,0.06172839506172839,57.469135802469125,0)" xlink:href="#W"/><use transform="matrix(0.06172839506172839,0,0,0.06172839506172839,69.81481481481481,0)" xlink:href="#W"/><use transform="matrix(0.06172839506172839,0,0,0.06172839506172839,82.1604938271605,0)" xlink:href="#Y"/></g><g id="P"><use transform="matrix(0.06172839506172839,0,0,0.06172839506172839,0,0)" xlink:href="#au"/><use transform="matrix(0.06172839506172839,0,0,0.06172839506172839,14.814814814814813,0)" xlink:href="#al"/><use transform="matrix(0.06172839506172839,0,0,0.06172839506172839,22.160493827160494,0)" xlink:href="#ai"/><use transform="matrix(0.06172839506172839,0,0,0.06172839506172839,34.50617283950617,0)" xlink:href="#ao"/><use transform="matrix(0.06172839506172839,0,0,0.06172839506172839,46.85185185185185,0)" xlink:href="#ay"/><use transform="matrix(0.06172839506172839,0,0,0.06172839506172839,59.197530864197525,0)" xlink:href="#aq"/><use transform="matrix(0.06172839506172839,0,0,0.06172839506172839,70.30864197530863,0)" xlink:href="#ag"/><use transform="matrix(0.06172839506172839,0,0,0.06172839506172839,76.48148148148147,0)" xlink:href="#ai"/><use transform="matrix(0.06172839506172839,0,0,0.06172839506172839,88.82716049382715,0)" xlink:href="#X"/><use transform="matrix(0.06172839506172839,0,0,0.06172839506172839,94.99999999999999,0)" xlink:href="#ah"/></g><g id="Q"><use transform="matrix(0.06172839506172839,0,0,0.06172839506172839,0,0)" xlink:href="#V"/><use transform="matrix(0.06172839506172839,0,0,0.06172839506172839,15.987654320987653,0)" xlink:href="#ap"/><use transform="matrix(0.06172839506172839,0,0,0.06172839506172839,28.333333333333332,0)" xlink:href="#af"/><use transform="matrix(0.06172839506172839,0,0,0.06172839506172839,40.67901234567901,0)" xlink:href="#ag"/><use transform="matrix(0.06172839506172839,0,0,0.06172839506172839,46.851851851851855,0)" xlink:href="#ad"/><use transform="matrix(0.06172839506172839,0,0,0.06172839506172839,51.7283950617284,0)" xlink:href="#ao"/><use transform="matrix(0.06172839506172839,0,0,0.06172839506172839,64.07407407407408,0)" xlink:href="#ap"/><use transform="matrix(0.06172839506172839,0,0,0.06172839506172839,76.41975308641976,0)" xlink:href="#ao"/><use transform="matrix(0.06172839506172839,0,0,0.06172839506172839,88.76543209876544,0)" xlink:href="#au"/><use transform="matrix(0.06172839506172839,0,0,0.06172839506172839,103.58024691358025,0)" xlink:href="#al"/><use transform="matrix(0.06172839506172839,0,0,0.06172839506172839,110.92592592592594,0)" xlink:href="#ai"/><use transform="matrix(0.06172839506172839,0,0,0.06172839506172839,123.27160493827162,0)" xlink:href="#ao"/><use transform="matrix(0.06172839506172839,0,0,0.06172839506172839,135.6172839506173,0)" xlink:href="#ay"/><use transform="matrix(0.06172839506172839,0,0,0.06172839506172839,147.96296296296296,0)" xlink:href="#aq"/><use transform="matrix(0.06172839506172839,0,0,0.06172839506172839,159.07407407407408,0)" xlink:href="#ag"/><use transform="matrix(0.06172839506172839,0,0,0.06172839506172839,165.2469135802469,0)" xlink:href="#ai"/><use transform="matrix(0.06172839506172839,0,0,0.06172839506172839,177.59259259259258,0)" xlink:href="#ar"/></g><g id="R"><use transform="matrix(0.06172839506172839,0,0,0.06172839506172839,0,0)" xlink:href="#aD"/><use transform="matrix(0.06172839506172839,0,0,0.06172839506172839,18.456790123456788,0)" xlink:href="#ai"/><use transform="matrix(0.06172839506172839,0,0,0.06172839506172839,30.80246913580247,0)" xlink:href="#af"/><use transform="matrix(0.06172839506172839,0,0,0.06172839506172839,43.148148148148145,0)" xlink:href="#ag"/><use transform="matrix(0.06172839506172839,0,0,0.06172839506172839,49.32098765432099,0)" xlink:href="#ai"/><use transform="matrix(0.06172839506172839,0,0,0.06172839506172839,61.666666666666664,0)" xlink:href="#au"/><use transform="matrix(0.06172839506172839,0,0,0.06172839506172839,76.48148148148148,0)" xlink:href="#al"/><use transform="matrix(0.06172839506172839,0,0,0.06172839506172839,83.82716049382717,0)" xlink:href="#ai"/><use transform="matrix(0.06172839506172839,0,0,0.06172839506172839,96.17283950617285,0)" xlink:href="#ao"/><use transform="matrix(0.06172839506172839,0,0,0.06172839506172839,108.51851851851853,0)" xlink:href="#ay"/><use transform="matrix(0.06172839506172839,0,0,0.06172839506172839,120.86419753086422,0)" xlink:href="#aq"/><use transform="matrix(0.06172839506172839,0,0,0.06172839506172839,131.97530864197532,0)" xlink:href="#ag"/><use transform="matrix(0.06172839506172839,0,0,0.06172839506172839,138.14814814814815,0)" xlink:href="#ai"/><use transform="matrix(0.06172839506172839,0,0,0.06172839506172839,150.49382716049382,0)" xlink:href="#ar"/></g><g id="S"><use transform="matrix(0.06172839506172839,0,0,0.06172839506172839,0,0)" xlink:href="#aI"/><use transform="matrix(0.06172839506172839,0,0,0.06172839506172839,12.345679012345679,0)" xlink:href="#aJ"/><use transform="matrix(0.06172839506172839,0,0,0.06172839506172839,25.864197530864196,0)" xlink:href="#aQ"/><use transform="matrix(0.06172839506172839,0,0,0.06172839506172839,39.382716049382715,0)" xlink:href="#aO"/><use transform="matrix(0.06172839506172839,0,0,0.06172839506172839,46.72839506172839,0)" xlink:href="#aP"/><use transform="matrix(0.06172839506172839,0,0,0.06172839506172839,59.07407407407407,0)" xlink:href="#aQ"/><use transform="matrix(0.06172839506172839,0,0,0.06172839506172839,72.59259259259258,0)" xlink:href="#aP"/><use transform="matrix(0.06172839506172839,0,0,0.06172839506172839,84.93827160493827,0)" xlink:href="#aM"/></g><g id="T"><use transform="matrix(0.06172839506172839,0,0,0.06172839506172839,0,0)" xlink:href="#aI"/><use transform="matrix(0.06172839506172839,0,0,0.06172839506172839,12.345679012345679,0)" xlink:href="#aJ"/><use transform="matrix(0.06172839506172839,0,0,0.06172839506172839,25.864197530864196,0)" xlink:href="#aQ"/><use transform="matrix(0.06172839506172839,0,0,0.06172839506172839,39.382716049382715,0)" xlink:href="#aO"/><use transform="matrix(0.06172839506172839,0,0,0.06172839506172839,46.72839506172839,0)" xlink:href="#aP"/><use transform="matrix(0.06172839506172839,0,0,0.06172839506172839,59.07407407407407,0)" xlink:href="#aQ"/><use transform="matrix(0.06172839506172839,0,0,0.06172839506172839,72.59259259259258,0)" xlink:href="#aP"/><use transform="matrix(0.06172839506172839,0,0,0.06172839506172839,84.93827160493827,0)" xlink:href="#aM"/></g><g id="U"><use transform="matrix(0.06234567901234565,0,0,0.06234567901234565,0,0)" xlink:href="#aI"/><use transform="matrix(0.06234567901234565,0,0,0.06234567901234565,12.46913580246913,0)" xlink:href="#aJ"/><use transform="matrix(0.06234567901234565,0,0,0.06234567901234565,26.12283950617283,0)" xlink:href="#aQ"/><use transform="matrix(0.06234567901234565,0,0,0.06234567901234565,39.77654320987653,0)" xlink:href="#aO"/><use transform="matrix(0.06234567901234565,0,0,0.06234567901234565,47.195679012345664,0)" xlink:href="#aP"/><use transform="matrix(0.06234567901234565,0,0,0.06234567901234565,59.6648148148148,0)" xlink:href="#aQ"/><use transform="matrix(0.06234567901234565,0,0,0.06234567901234565,73.31851851851849,0)" xlink:href="#aP"/><use transform="matrix(0.06234567901234565,0,0,0.06234567901234565,85.78765432098761,0)" xlink:href="#aM"/></g></defs></g></svg>